<svg width="475" height="463" viewBox="0 0 475 463" fill="none" xmlns="http://www.w3.org/2000/svg"><path d="m51.856 164.792 13.163 7.181.272-.571 6.061-1.427 5.157 2.806c-.95 1.902-1.221 3.329-.86 4.28.362.903 1.312 1.807 2.76 2.568l1.04.571c.181-.333.136-.761-.135-1.189l2.307-1.379 6.061-1.427c2.081 1.474 3.302 3.234 3.755 5.231.452 1.997.18 3.947-.77 5.897-.95 1.95-2.532 3.519-4.704 4.708.362 2.568.046 4.851-.95 6.848-.995 1.997-3.257 3.662-6.74 4.993-3.528 1.332-6.74 1.427-9.635.191l-.226-2.759c.497.048.95-.333 1.312-1.046 1.04-2.14-.181-4.137-3.71-6.039l-.452.903-6.062 1.427-5.157-2.806c.996-2.045 1.765-3.424 2.308-4.185l-13.39-7.276-1.04 2.14 7.237 3.947-4.207 8.608-6.061 1.426L22 189.045l20.99-42.657 6.061-1.427 17.19 9.368-4.026 8.132-6.062 1.427-3.03-1.664-1.267 2.568Zm8.956 21.78c-.045-.666-.316-1.522-.814-2.711l.95-1.902c1.176-.19 2.036-.475 2.578-.856-.407-.856-.633-1.759-.588-2.758l-20.13-10.938 5.112-10.367 7.238 3.947 2.08-4.232-13.253-7.181-18.954 38.52 13.254 7.181 2.171-4.423-7.238-3.947 4.976-10.129 20.13 10.937c.679-.57 1.493-.951 2.488-1.141Zm16.828 5.374c2.352-.999 4.026-2.568 5.066-4.708s.634-4.375-1.221-6.61c0 .428-.09.903-.317 1.331-1.719 3.472-4.976 3.852-9.816 1.237-3.935-2.14-5.112-4.851-3.528-8.085l-1.764-.951c-.453.951-.77 1.664-.95 2.188-.181.523-.181 1.331-.046 2.33.136.998.589 2.092 1.358 3.281-.815 1.046-2.172 1.712-4.117 1.997.769 1.712 1.04 3.282.814 4.661-1.357.095-2.443.333-3.347.808-.86.476-1.493.904-1.81 1.38-.316.475-.678 1.141-1.13 1.997l1.764.951c1.583-3.281 4.388-3.804 8.323-1.664 3.574 1.949 5.428 3.947 5.519 5.991 0 .952-.272 1.998-.814 3.139l-.86 1.046c2.85.286 4.795-.618 5.836-2.805 1.04-2.14 1.311-4.518.723-7.086l.317-.428Z" fill="#000"/><path d="M76.735 149.669c1.538-1.617 2.67-2.711 3.438-3.234L69.498 135.26l-.453.475-6.152-.571-7.916-8.322 17.009-17.976 6.151.571 7.917 8.322-3.348 3.567 3.393 3.519 8.866-9.321-3.392-3.519-.453.475-6.152-.57-7.916-8.322L94.06 85.612l6.153.57 7.916 8.322-3.348 3.567 10.495 10.986.452-.476 6.152.571 4.117 4.28c-1.448 1.521-2.126 2.805-2.036 3.804.091.999.724 2.092 1.9 3.329l.86.904c.271-.286.316-.666.226-1.189l2.578-.571 6.152.571c1.538 2.092 2.217 4.137 2.081 6.182-.136 2.045-.95 3.852-2.443 5.421-1.492 1.57-3.437 2.568-5.835 2.996-.407 2.568-1.357 4.613-2.895 6.23-1.493 1.617-4.116 2.473-7.871 2.615-3.755.143-6.831-.808-9.273-2.853l.542-2.711c.498.191.996.001 1.584-.57 1.583-1.712.995-3.995-1.81-6.943l-.678.713-6.152-.571-1.448-1.521-2.985 3.138 1.357.095 4.116 4.28c-1.447 1.522-2.126 2.806-2.035 3.805.09.999.723 2.092 1.899 3.329l.86.903c.271-.285.317-.666.226-1.189l2.578-.57 6.153.57c1.538 2.093 2.216 4.138 2.08 6.183-.135 2.044-.95 3.852-2.442 5.421-1.493 1.569-3.438 2.568-5.836 2.996-.407 2.568-1.357 4.613-2.895 6.23-1.493 1.617-4.116 2.473-7.87 2.615-3.755.143-6.832-.808-9.274-2.853l.543-2.711c.497.191.995 0 1.583-.57 1.583-1.712.995-3.995-1.81-6.944l-.678.714-6.152-.571-4.162-4.47Zm8.233-4.803c.136-.618.136-1.569 0-2.853l1.448-1.522c1.176.19 2.035.19 2.714 0-.136-.951-.09-1.902.226-2.854l-2.85-2.996 15.018-15.836 2.85 2.996c.769-.285 1.674-.38 2.714-.237.136-.619.136-1.57 0-2.854l1.448-1.522c1.176.191 2.036.191 2.714 0-.136-.951-.09-1.902.226-2.853L95.418 97.501l3.483-3.662-4.795-4.994-13.933 14.695 4.795 4.993 3.347-3.566 9.817 10.319-15.019 15.836-9.816-10.272 3.483-3.662-4.794-4.993-13.888 14.647 4.795 4.994 3.347-3.567 16.06 16.835c.768-.238 1.673-.333 2.668-.238Zm14.52 10.51c2.489-.191 4.57-1.142 6.198-2.854 1.629-1.712 1.855-3.947.769-6.705-.09.428-.317.808-.678 1.189-2.624 2.758-5.836 2.092-9.726-1.95-3.167-3.281-3.483-6.23-1.04-8.845l-1.403-1.474c-.724.76-1.221 1.331-1.538 1.807-.316.475-.543 1.189-.678 2.235-.136 1.046-.046 2.187.362 3.519-1.086.761-2.579.951-4.479.618.226 1.902.045 3.472-.543 4.708-1.312-.333-2.442-.428-3.438-.285-.95.142-1.673.428-2.08.761-.408.333-.996.856-1.674 1.569l1.402 1.474c2.443-2.615 5.248-2.235 8.414 1.046 2.85 2.996 4.026 5.469 3.528 7.467-.271.903-.814 1.807-1.673 2.71l-1.131.714c2.623 1.189 4.75.903 6.378-.809 1.628-1.712 2.533-3.899 2.714-6.515l.317-.38Zm22.031-23.303c2.488-.19 4.568-1.141 6.197-2.853 1.628-1.712 1.855-3.947.769-6.705-.091.428-.317.808-.679 1.189-2.623 2.758-5.835 2.092-9.725-1.95-3.167-3.282-3.484-6.23-1.041-8.845l-1.402-1.475c-.724.761-1.221 1.332-1.538 1.807-.317.476-.543 1.189-.679 2.236-.135 1.046-.045 2.187.362 3.519-1.085.761-2.578.951-4.478.618.226 1.902.045 3.471-.543 4.708-1.312-.333-2.443-.428-3.438-.285-.95.142-1.674.428-2.081.76-.452.333-.995.856-1.673 1.57l1.402 1.474c2.443-2.616 5.247-2.235 8.414 1.046 2.85 2.996 4.026 5.469 3.528 7.466-.271.904-.814 1.808-1.674 2.711l-1.13.713c2.623 1.189 4.749.904 6.378-.808 1.628-1.712 2.533-3.9 2.714-6.515l.317-.381Z" fill="#000"/><path d="M179.918 99.308c.859 1.712 1.855 2.615 2.94 2.71l-.271 2.711c-1.222.666-2.669 1.046-4.298 1.141-1.673.095-3.03-.047-4.161-.38-.453 1.189-1.448 2.615-3.031 4.28-1.583 1.664-3.212 2.996-4.931 3.899-3.438 1.855-6.695 2.426-9.816 1.665-.995 2.996-2.714 5.136-5.157 6.467-2.443 1.332-5.338 1.332-8.685 0-3.302-1.331-5.79-3.281-7.464-5.754l1.312-2.425c.407.285.995.19 1.719-.19 1.855-1.047 1.9-3.377.09-6.991l-.633.428-5.7-2.52-2.669-5.422c1.991-1.094 3.393-1.76 4.253-2.045l-6.922-14.076-1.99 1.094-5.7-2.52-5.156-10.415 37.817-20.64 5.699 2.52 8.912 18.072-8.188 4.47-5.7-2.52-1.583-3.187-7.554 4.09 2.126 4.28 5.021-2.71 5.7 2.52 4.252 8.56-5.293 2.901 1.267.523 2.669 5.421c-.724.476-1.312.856-1.719 1.19-.453.332-.814.855-1.086 1.569-.316.713-.226 1.521.181 2.33l.136.285c.769-.095 1.764-.523 2.985-1.189 1.222-.666 2.172-1.664 2.85-3.043.679-1.38.679-2.806-.045-4.233-.136-.238-.633-.903-1.493-1.902l-1.176-2.378 8.188-4.47 5.699 2.52 6.605 13.364Zm-41.527-2.33c.317-.571.589-1.475.815-2.711l1.9-1.046c1.04.57 1.9.855 2.488.903a7.157 7.157 0 0 1 1.085-2.663l-1.9-3.852 8.64-4.708-2.171-4.423-8.64 4.708L134.23 70.3l15.154-8.275 3.754 7.609 4.207-2.283-6.876-13.933-33.881 18.451 3.121 6.277 5.655-3.09 10.494 21.257a9.477 9.477 0 0 1 2.533.665Zm25.785-5.517c.995 1.997 1.04 3.9.136 5.85-.86 1.901-2.353 3.423-4.388 4.565-2.081 1.141-4.207 1.521-6.469 1.141-2.262-.38-3.981-1.855-5.247-4.423-.453-.903-.543-1.997-.362-3.329.226-1.331 1.04-2.425 2.578-3.233l-.859-1.76c-.86.476-1.493.856-1.9 1.189-.407.333-.86.904-1.267 1.807-.452.904-.678 2.045-.769 3.376-1.266.381-2.759.143-4.478-.76-.226 1.76-.86 3.138-1.945 4.232-1.131-.713-2.172-1.141-3.122-1.236-.949-.096-1.673-.096-2.171.047-.497.19-1.131.476-1.99.951l.859 1.76c1.583-.856 3.031-.904 4.343-.143 1.312.761 2.443 2.188 3.483 4.233 1.04 2.092 1.538 3.947 1.583 5.611.046 1.665-.995 3.091-2.985 4.185l-1.041.381c2.081 2.044 4.207 2.52 6.288 1.331 2.126-1.141 3.619-3.376 4.569-6.705l.633-.333.407.143c3.212.76 6.469.237 9.681-1.522 3.211-1.76 5.699-4.566 7.418-8.465.634.19 1.81.38 3.529.475 1.719.096 2.985 0 3.8-.237-.679-.286-1.493-1.427-2.534-3.52l-5.111-10.367-4.298 2.33c.634.761 1.176 1.57 1.629 2.426Z" fill="#000"/><path d="M245.826 66.827a13.568 13.568 0 0 0 1.764-2.045l2.081-.047c.679.998 1.267 1.617 1.855 1.95.905-1.237 1.99-2.045 3.257-2.378 1.221-.333 3.166-.523 5.745-.619l4.071 4.899.136 6.087c-1.991.047-3.302.475-3.936 1.284-.633.808-.904 1.997-.859 3.614l.045 1.332c.362-.048.679-.286.95-.619l2.171 1.427 4.072 4.898c-.317 2.616-1.177 4.613-2.624 5.992-1.448 1.38-3.348 2.093-5.655 2.14-2.307.048-4.478-.95-6.514-3.09-1.266 1.045-2.216 1.759-2.94 2.234-.724.476-1.99.951-3.8 1.475-1.854.523-4.523.808-8.052.903-3.528.095-7.147-.428-10.856-1.617-3.71-1.141-6.876-3.281-9.454-6.325-2.579-3.043-3.981-6.895-4.072-11.508v-.904l-.95.048-4.071-4.898-.136-6.088c2.307-.047 3.981 0 4.931.143l-.407-18.499c-.136-6.515 2.986-10.985 9.364-13.506 3.257-1.284 6.83-1.997 10.721-2.092 3.89-.095 7.328.19 10.268.856 2.94.666 5.655 1.76 8.143 3.234 2.488 1.474 4.478 3.519 5.971 6.134 1.493 2.616 2.262 5.707 2.352 9.178l.181 8.418-15.38.38-4.071-4.898-.136-5.992-.091-1.332c-.497-.142-1.176-.237-2.08-.19-3.891.095-5.836 2.33-5.7 6.753l.271 11.176 3.845 4.565.136 6.087c-.905.095-1.628.19-2.171.285-.543.096-1.131.381-1.674.904-.588.523-.86 1.237-.814 2.188l.09 1.236c.86.333 2.036.428 3.529.428 1.492 0 2.849-.523 4.026-1.427 1.176-.903 1.899-2.14 2.171-3.709h-.543l-4.071-4.898-.136-6.087c1.81-.048 3.121-.048 3.981 0 2.081.095 3.845.95 5.066 2.52Zm-4.478 13.363c-1.674 1.712-3.89 2.616-6.695 2.663-2.805.096-5.066-.713-6.74-2.33-1.674-1.617-2.579-3.947-2.669-7.038-.045-1.046.317-2.14 1.04-3.186.724-1.094 1.946-1.617 3.71-1.665l-.045-1.997c-.996.047-1.765.095-2.262.19-.498.095-1.131.428-1.9 1.046-.769.619-1.448 1.475-2.126 2.663-1.312-.237-2.579-1.14-3.8-2.758-.905 1.474-2.081 2.426-3.438 2.901-.724-1.141-1.493-1.997-2.262-2.568-.814-.57-1.447-.903-1.945-.951-.497-.047-1.221-.095-2.171-.047l.045 1.997c3.393-.095 5.157 2.473 5.247 7.609.091 2.996 1.131 5.469 3.167 7.323 3.619 3.424 9.047 5.041 16.285 4.85 2.533-.047 4.704-.38 6.514-.95 1.809-.57 3.076-1.141 3.754-1.617.724-.523 1.629-1.332 2.76-2.425h.633c1.176 1.284 2.262 2.235 3.212 2.853.95.57 2.035.856 3.211.856 2.579-.048 4.479-1.57 5.7-4.47-.317.142-.769.19-1.357.19-1.583.047-2.805-.38-3.619-1.236-.859-.856-1.357-1.808-1.583-2.901-.226-1.047-.317-2.473-.362-4.233-.09-4.613 1.538-6.943 4.931-7.038l-.046-1.997c-.949.047-1.673.095-2.216.19-.543.095-1.176.428-1.945 1.046-.769.618-1.493 1.522-2.171 2.663-1.177-.238-2.353-1.141-3.574-2.758-.905 1.474-2.081 2.425-3.483 2.948-.724-1.14-1.493-1.997-2.262-2.568-.814-.57-1.493-.856-1.99-.95-.543-.048-1.267-.096-2.217-.048l.045 1.997c1.764-.047 3.031.476 3.8 1.522.769 1.046 1.221 2.092 1.221 3.09.046 3.044-.723 5.422-2.397 7.134Zm-24.337-12.65c.633-.428 1.221-1.093 1.764-2.044l2.126-.048c.724.999 1.312 1.617 1.855 1.95.905-1.19 1.99-1.95 3.212-2.33l-.362-16.407c-.045-2.9.588-5.136 1.99-6.705 1.403-1.57 3.393-2.426 5.971-2.473 2.579-.048 4.66.666 6.152 2.14 1.493 1.474 2.307 3.71 2.398 6.658l.09 3.756 10.857-.285-.136-5.897c-.09-3.043-1.131-5.564-3.166-7.514-2.036-1.95-4.433-3.28-7.193-3.947-2.759-.666-5.609-.998-8.504-.903-2.895.095-5.428.38-7.554.856-2.126.523-4.117 1.236-5.971 2.235a11.41 11.41 0 0 0-4.388 4.137c-1.086 1.76-1.584 3.805-1.538 6.135l.452 19.07a5.4 5.4 0 0 1 1.945 1.616Z" fill="#000"/><path d="m333.493 66.875-4.569-1.427-4.252 14.933.543.19 2.443 5.992-1.674 5.85c-1.945-.62-3.257-.62-4.026-.048-.769.57-1.402 1.664-1.855 3.233l-.316 1.046c-.769 2.759-2.126 4.946-3.936 6.516-1.809 1.569-4.026 2.52-6.469 2.853-4.614.571-9.544.048-14.792-1.569-7.283-2.283-12.756-5.992-16.375-11.08-3.619-5.09-4.659-10.416-3.121-15.884l.271-.856-.769-.238-2.443-5.992 1.674-5.85c2.081.666 3.529 1.19 4.343 1.617l4.297-15.17-.588-.19-2.443-5.992 3.212-11.27 23.116 7.228 2.442 5.992-3.211 11.27-4.569-1.426-4.252 14.932.678.238 2.443 5.992-1.674 5.85c-.859-.239-1.583-.381-2.126-.429-.543-.095-1.176.048-1.855.333-.723.285-1.221.904-1.447 1.807-.317 1.142.543 1.998 2.578 2.616 2.036.618 3.8.713 5.293.238 1.493-.476 2.624-1.38 3.438-2.711l-.543-.19-2.443-5.992 1.674-5.85c2.171.666 3.664 1.237 4.478 1.665l4.298-15.17-.588-.19-2.443-5.993 3.212-11.27 23.115 7.228 2.443 5.992-3.212 11.176Zm-49.126 25.347c2.488 1.522 5.338 2.806 8.504 3.804 3.167.999 6.243 1.57 9.093 1.712a16.435 16.435 0 0 0 8.142-1.664c2.533-1.284 4.207-3.329 5.021-6.23l.227-.808c1.266-4.423 3.528-6.135 6.83-5.089l.543-1.902c-.905-.285-1.629-.476-2.126-.523-.498-.048-1.221.047-2.171.38-.95.333-1.9.904-2.896 1.855-1.04-.618-1.899-1.855-2.578-3.757-1.312 1.094-2.714 1.617-4.252 1.617-.271-1.332-.724-2.378-1.357-3.139-.588-.808-1.131-1.331-1.629-1.569a15.837 15.837 0 0 0-2.08-.809l-.543 1.903c1.673.523 2.714 1.426 3.121 2.615.407 1.237.498 2.378.181 3.377-.814 2.853-2.352 4.85-4.569 5.897-2.216 1.046-4.704 1.189-7.373.333-2.669-.856-4.705-2.33-6.017-4.518-1.312-2.188-1.583-4.708-.723-7.61.271-.998.949-1.901 1.945-2.71.995-.808 2.352-.903 3.98-.38l.543-1.903c-.904-.285-1.628-.475-2.171-.57-.543-.095-1.267.047-2.171.38-.905.333-1.855.951-2.76 1.855-1.221-.666-2.171-1.95-2.714-3.805-1.402 1.047-2.759 1.617-4.116 1.665-.362-1.332-.815-2.378-1.448-3.186-.633-.809-1.176-1.332-1.628-1.57-.453-.237-1.131-.475-2.036-.76l-.543 1.902c3.302 1.046 4.298 3.757 3.076 8.18l-.226.808c-.814 2.853-.498 5.564.995 8.084a16.719 16.719 0 0 0 5.926 6.135Zm-2.669-22.399c.724-.19 1.538-.618 2.443-1.331l1.9.618c.407 1.141.814 1.997 1.266 2.473.769-.57 1.629-.951 2.534-1.094l6.468-22.874 4.705 1.474 1.945-6.8-18.863-5.897-1.945 6.8 4.568 1.427-6.514 22.921c.634.571 1.086 1.332 1.493 2.283Zm28.589 8.94c.588-.142 1.402-.618 2.352-1.33l1.9.617c.407 1.19.86 1.998 1.357 2.52a6.956 6.956 0 0 1 2.443-1.045l6.514-22.922 4.705 1.474 1.945-6.8-18.864-5.897-1.945 6.8 4.569 1.427-6.514 22.921c.633.571 1.131 1.332 1.538 2.236Z" fill="#000"/><path d="m368.732 89.559-4.072-2.568-7.69 13.363.543.333.95 6.42-2.985 5.231c-1.765-1.141-3.122-1.522-3.981-1.189-.905.333-1.764 1.236-2.624 2.711l-.633 1.093c.317.191.678.191 1.131-.047l1.176 2.473.95 6.42c-1.538 2.045-3.302 3.281-5.202 3.614-1.945.333-3.8-.048-5.564-1.189-1.81-1.141-3.167-2.901-4.162-5.279-2.443.191-4.614-.285-6.423-1.474-1.855-1.189-3.257-3.614-4.298-7.418-1.04-3.757-.904-7.181.453-10.13l2.623-.095c-.045.523.226 1.046.905 1.474 1.945 1.237 3.935.095 6.016-3.519l-.814-.523-.95-6.42 2.986-5.231c1.854 1.189 3.121 2.092 3.8 2.71l7.78-13.553-.543-.333-.95-6.42 5.79-10.081 20.628 13.125.95 6.42-5.79 10.082Zm-31.53 22.636c.769 2.521 2.172 4.375 4.117 5.659 1.945 1.284 4.071.999 6.378-.808-.407 0-.859-.143-1.267-.428-3.166-1.997-3.347-5.469-.542-10.367 2.307-3.995 4.93-5.041 7.916-3.139l1.04-1.807c-.859-.523-1.538-.951-2.035-1.141-.498-.238-1.222-.286-2.217-.19-.995.095-2.035.475-3.166 1.188-.95-.951-1.493-2.425-1.629-4.422-1.674.665-3.166.856-4.478.57 0-1.426-.181-2.615-.543-3.566-.362-.951-.769-1.617-1.176-1.95-.407-.38-1.041-.809-1.855-1.332l-1.04 1.807c2.985 1.903 3.347 4.851 1.04 8.846-2.081 3.614-4.116 5.421-6.061 5.374-.905-.048-1.855-.428-2.895-1.047l-.905-.998c-.453 2.948.271 5.041 2.262 6.325 1.99 1.284 4.207 1.664 6.649 1.236l.407.19Zm6.198-17.262c.633 0 1.492-.238 2.623-.666l1.765 1.141c.09 1.236.316 2.14.633 2.758.814-.38 1.719-.523 2.669-.428l11.761-20.401L367.058 80l3.483-6.087-16.828-10.7-3.483 6.087 4.072 2.568L342.54 92.27c.453.714.769 1.57.86 2.663Z" fill="#000"/><path d="m400.623 118.472-3.438-3.471-10.314 11.223.407.428-.452 6.515-4.026 4.375c-.633-.57-1.176-1.046-1.629-1.379-.452-.333-1.04-.523-1.764-.571-.769-.047-1.447.238-2.081.904l-.226.238c.362.761.995 1.617 1.991 2.615.995.999 2.216 1.617 3.664 1.855 1.447.238 2.714-.19 3.8-1.379.18-.19.588-.904 1.266-2.093l1.764-1.902 6.605 6.706-.453 6.515-9.861 10.795c-1.267 1.379-1.809 2.663-1.493 3.804l-2.533.571c-.995-.999-1.809-2.33-2.397-3.947-.589-1.617-.95-3.044-.996-4.28-1.176-.048-2.804-.618-4.84-1.665-2.035-1.046-3.709-2.282-5.066-3.661-2.76-2.806-4.343-5.897-4.66-9.226-2.985 0-5.473-1.046-7.463-3.091-1.991-2.045-2.896-4.899-2.76-8.655.181-3.757 1.086-6.801 2.805-9.274l2.578.523c-.09.523.136 1.047.679 1.617 1.538 1.522 3.619.856 6.378-2.14l-.588-.57.452-6.516 4.026-4.375c1.584 1.617 2.669 2.806 3.212 3.615l10.449-11.414-.452-.475.452-6.515 7.781-8.465 17.37 17.595-.452 6.515-7.735 8.655Zm-12.666 23.208c-1.448 1.617-3.212 2.282-5.202 1.997-1.991-.238-3.845-1.236-5.519-2.948s-2.714-3.71-3.076-6.088c-.362-2.33.407-4.565 2.307-6.657.679-.714 1.628-1.189 2.895-1.427 1.267-.238 2.488.285 3.709 1.522l1.312-1.427c-.678-.713-1.221-1.189-1.674-1.522-.407-.285-1.085-.523-2.08-.713-.996-.19-2.036-.048-3.257.333-.724-1.142-.996-2.711-.769-4.708-1.629.333-3.122.143-4.433-.571.271-1.331.316-2.52.135-3.519-.181-.999-.452-1.712-.724-2.14-.316-.428-.814-.999-1.492-1.664l-1.312 1.426c1.312 1.332 1.809 2.758 1.538 4.28-.272 1.522-1.176 3.139-2.714 4.851-1.538 1.664-3.076 2.806-4.569 3.376-1.493.571-3.076 0-4.705-1.664l-.678-.951c-1.176 2.758-.905 4.993.769 6.705 1.674 1.712 4.207 2.521 7.509 2.378l.498.523v.476c.362 3.471 1.854 6.515 4.433 9.13 2.623 2.663 5.926 4.185 9.997 4.661 0 .713.226 1.949.724 3.661.452 1.76.95 2.996 1.447 3.71.045-.761.814-1.95 2.352-3.662l7.69-8.417-3.483-3.519a9.364 9.364 0 0 1-1.628 2.568Zm-13.209-23.968c.588.142 1.493.142 2.714-.048l1.538 1.569c-.181 1.237-.181 2.14 0 2.759.95-.143 1.855-.048 2.76.237l15.742-17.167 3.528 3.614 4.704-5.088-14.158-14.362-4.705 5.088 3.438 3.472L374.522 115c.181.808.271 1.712.226 2.711Z" fill="#000"/><path d="m443.461 189.616-10.042 6.039.497.951-2.171 6.087-5.021 2.996c-1.041-1.949-2.081-2.948-3.121-3.043-1.041-.095-2.443.38-4.207 1.474-7.736 4.613-15.109.428-22.166-12.602-1.9-3.519-3.121-6.23-3.574-8.132a15.628 15.628 0 0 1-.407-5.802c-2.759-.713-4.749-2.14-5.926-4.327-1.538-2.854-1.764-6.04-.633-9.559 1.131-3.519 2.85-6.23 5.157-8.132l2.307 1.189c-.226.523-.09 1.141.317 1.902.407.761 1.04 1.236 1.9 1.379a4.457 4.457 0 0 0 2.261-.19c.679-.285 1.493-.713 2.534-1.332l-.453-.856 2.172-6.087 5.021-2.996c1.131 2.14 1.9 3.662 2.216 4.613l13.073-7.847-.316-.57 2.171-6.087 9.726-5.802 13.525 24.919c3.121 5.802 4.614 11.556 4.433 17.215-.135 2.901-.995 5.612-2.533 8.18-1.628 2.52-3.845 4.66-6.74 6.42Zm-25.422-4.28c-4.75 2.853-8.64 1.426-11.671-4.185-3.031-5.612-2.217-9.844 2.533-12.698.814-.475 1.9-.665 3.166-.475 1.267.143 2.353 1.046 3.212 2.615l1.674-.998c-.452-.856-.86-1.522-1.221-1.95-.317-.428-.95-.904-1.81-1.332-.859-.428-1.945-.665-3.257-.713-.407-1.284-.226-2.853.588-4.66-1.719-.238-3.076-.856-4.071-1.76.633-1.189.995-2.33 1.086-3.329.09-.998.045-1.759-.136-2.33-.181-.523-.543-1.236-.995-2.092l-1.674.998c1.674 3.091.588 5.802-3.212 8.085-1.492.903-2.669 1.521-3.664 1.854-.95.333-2.035.381-3.166.048-1.131-.285-2.126-1.189-2.895-2.616l-.543-1.331c-1.764 2.568-1.991 5.088-.724 7.418.588 1.094 1.402 1.95 2.352 2.473.95.523 2.307.999 3.981 1.427l.317.571c-.407 1.949-.407 3.899.045 5.801.407 1.903 1.583 4.566 3.438 8.037 6.333 11.699 12.711 15.599 19.134 11.747 4.253-2.568 7.238-2.283 8.912.808l1.674-.999c-.453-.856-.86-1.521-1.176-1.949-.317-.428-.905-.856-1.81-1.284-.859-.428-1.945-.666-3.257-.714-.362-1.236-.181-2.758.633-4.613-1.719-.237-3.121-.903-4.206-1.997.633-1.189.995-2.283 1.085-3.281.091-.999.045-1.712-.136-2.235-.18-.524-.497-1.189-.995-2.14l-1.673.998c.859 1.617 1.04 2.996.542 4.185-.497 1.237-1.176 2.093-2.08 2.616Zm3.98-10.7c.95 1.807 1.584 3.091 1.9 3.852l11.852-7.086.859-.618c-.135-.666-.452-1.475-.95-2.426l-3.211-5.944-12.892 7.704.135.285-2.171 6.087-5.021 2.996c-1.629-2.805-3.302-3.661-5.021-2.663l-.362.19c.226.904.633 1.855 1.221 2.901 1.9 3.519 4.162 4.946 6.695 4.233l-.271-.523 2.171-6.087 5.066-2.901Zm2.262 9.749c.633.285 1.493.475 2.578.665L427.9 187c-.543 1.046-.769 1.902-.769 2.663.859.143 1.628.428 2.262.856l15.018-8.988c3.664-2.187 5.519-5.374 5.564-9.511.045-4.137-1.176-8.512-3.709-13.125l-12.395-22.874-5.835 3.519 2.352 4.327-19.904 11.937c.045.618-.135 1.426-.452 2.377.452.238 1.312.476 2.578.666l1.041 1.902c-.498 1.142-.724 1.998-.769 2.664 1.221.237 2.216.713 3.076 1.426l19.496-11.698 4.343 7.989c1.312 2.425 1.764 4.708 1.357 6.848-.407 2.187-1.719 3.899-3.981 5.279l-12.485 7.466a7.253 7.253 0 0 1-.407 3.662Z" fill="#000"/><path d="M157.707 190.662c-1.764-8.988-2.759-17.976 0-26.822.769-2.472 1.855-4.85 3.121-7.085 2.036-3.71 7.736-4.661 10.586-1.998.949.904 1.266 1.807.633 2.949-.679 1.189-1.312 2.425-2.081 3.566a76.87 76.87 0 0 1-3.709 4.946c-3.664 4.518-5.383 9.939-6.56 15.598-.633 2.901-1.311 5.85-1.99 8.846Zm5.067-25.11c1.764-2.425 3.392-4.708 5.066-6.99.045-.095.09-.238.136-.333-3.484-.523-5.971 2.901-5.202 7.323Z" fill="#000"/><path d="M261.885 176.871c-2.759-.619-5.293-1.094-7.781-1.665-5.021-1.141-10.042-2.235-15.063-3.471-.995-.238-1.945-.904-2.805-1.57-1.402-1.093-2.578-2.425-3.98-3.519-.86-.666-1.9-1.046-2.85-1.474-.86-.333-1.765-.523-2.579-.856-2.623-1.141-4.026-3.234-3.98-6.182.045-1.76-.589-2.616-2.036-3.377-2.895-1.474-5.7-3.186-8.55-4.85-7.599-4.471-15.244-4.851-23.025-.381-3.211 1.855-6.423 3.614-9.68 5.422l-.543.38c7.69 3.947 15.245 7.799 22.844 11.699.045-.095.091-.143.136-.238a7918.49 7918.49 0 0 1-15.968-10.653c1.628-3.852 4.523-5.706 8.368-6.087 13.028-1.331 24.925 5.612 30.896 18.167 1.764 3.709 3.031 7.751 4.433 11.651.588 1.617.181 3.138-.859 4.517-.272.333-.452.952-.362 1.332.995 3.567 2.081 7.133 3.166 10.7 2.624 8.703 6.786 16.359 13.526 22.304.452.38.633.998.859 1.664-2.488-.333-4.795-1.189-6.966-2.378-3.257-1.807-5.926-4.327-7.826-7.656a3208.145 3208.145 0 0 1-9.725-17.025c-.362-.618-.679-1.237-1.267-1.76.86 1.998 1.674 4.043 2.579 6.04 3.845 8.56 7.599 17.167 11.535 25.632 2.442 5.279 2.307 10.082-1.086 14.838-1.402 1.997-2.624 4.137-3.89 6.229-3.438 5.802-6.424 11.842-7.555 18.642-.181 1.094-.271 2.235-.452 3.377-.543 3.757-2.669 6.039-6.288 6.182-6.197.238-11.399 3.091-16.466 6.372-2.261 1.475-4.568 3.091-7.056 4.043-3.484 1.331-7.057.998-10.224-1.284-2.035-1.475-3.347-3.472-3.483-6.183-.045-1.331 0-2.663 0-4.137.95-.143 1.764.143 2.488 1.046.95 1.237 1.991 2.331 3.076 3.424 1.493 1.427 3.257 1.902 5.067.856 2.488-1.426 4.93-2.901 7.237-4.565 3.664-2.568 7.102-5.517 11.309-7.086.769-.285 1.583-.618 2.398-.761 2.126-.285 3.573-1.617 4.523-3.471 1.448-2.711 2.895-5.422 4.072-8.227 1.854-4.28 3.528-8.656 5.247-12.983 1.674-4.185 1.447-8.512.769-12.888-2.171-14.124-6.74-27.392-13.616-39.756-.317-.571-.543-1.237-.995-2.283-.362.809-.724 1.332-.769 1.855a3256.322 3256.322 0 0 0-3.167 20.639c-.045.238-.09.476-.135.761-5.429-4.375-8.324-21.115-1.538-29.199a50.307 50.307 0 0 0-1.177-.809c-7.463-4.803-15.47-6.325-24.02-4.47-5.473 1.189-9.499 4.661-12.259 9.701-1.311 2.426-2.307 5.041-3.392 7.562-.181.428-.362.856-.634 1.617-.723-3.662-.769-7.039-.181-10.367 1.041-5.897 3.981-10.748 7.6-15.218 2.443-3.044 5.066-5.992 7.6-9.036.362-.428.723-.903 1.221-1.474-.407-.238-.769-.476-1.131-.666-4.75-2.52-9.545-5.088-14.34-7.609-.723-.38-1.04-.761-.859-1.664.498-2.378.769-4.803 1.312-7.181 1.312-5.326 4.478-8.845 9.635-9.939 6.559-1.379 13.164-1.569 19.723.095 5.971 1.522 10.494 5.184 13.842 10.605 1.719 2.853 3.709 5.469 6.197 7.609 4.252 3.662 9.183 5.136 14.611 4.708 1.312-.095 2.398.19 3.302 1.094a44.786 44.786 0 0 1 2.896 3.043c2.08 2.33 4.523 3.472 7.644 3.139 5.067-.523 9.409 1.284 12.531 5.516 2.714 3.71 5.157 7.752 7.916 11.937Zm-37.727 1.284c.136-.048.227-.143.362-.191-1.809-3.804-3.528-7.656-5.519-11.318-1.99-3.709-5.021-6.325-8.956-7.656-1.086-.381-1.674-.095-2.172.998 5.429 6.088 10.857 12.127 16.285 18.167Zm-38.812-36.951c2.262.428 4.252.856 6.243 1.189 1.447.238 2.849.523 4.297.523 1.674.048 2.895-1.141 2.624-2.378-.543-2.425-1.9-4.185-4.162-4.993-1.99-.713-3.89-.238-5.383 1.379-1.176 1.332-2.262 2.758-3.619 4.28Zm-17.28 3.995c2.579-1.284 5.157-2.568 7.69-3.9.181-.095.317-.475.362-.713.09-.904.136-1.807.136-2.758-.045-1.617-.724-2.283-2.262-2.283-3.619-.048-7.102 5.469-5.926 9.654Zm87.576 26.155c.046-.142.046-.285.091-.475-.633-.143-1.267-.381-1.9-.428-1.448-.048-2.895.095-4.343-.048-4.297-.428-8.142-2.758-8.504-7.704 0-.285-.588-.523-.905-.808-.226 2.805.724 4.898 2.579 6.42 3.89 3.186 8.414 3.281 12.982 3.043Z" fill="#000"/><path d="M331.322 220.194a345.46 345.46 0 0 0 5.157 2.282c.271-1.284.497-2.52.769-3.709.633-2.615 1.311-5.231 1.9-7.847.361-1.712 1.447-2.663 2.895-3.328a146.72 146.72 0 0 1 3.754-1.712c.86 1.664.995 3.424.724 5.278-.679 4.756-2.94 8.655-6.107 12.032l-.543.57c-.045.048-.045.096-.045.238 1.764.904 3.528 1.76 5.293 2.711 5.79 3.043 11.037 6.753 14.927 12.317 3.348 4.803 5.067 10.224 5.655 16.216-1.267-.047-2.217-.285-2.895-1.569-2.895-5.421-7.374-9.178-12.395-12.174-5.111-3.091-10.359-5.945-15.425-9.083-4.795-2.996-8.957-6.801-11.897-11.842-.498-.856-.86-1.854-1.402-2.996 1.899.333 3.573.618 5.383.904-1.493-3.282-3.393-5.897-6.695-6.991-.226.713-.498 1.474-.769 2.235-.136 0-.317-.047-.453-.047-1.221-2.14-2.488-4.28-3.709-6.468-5.157-8.893-12.214-15.788-20.311-21.59-7.69-5.517-16.013-9.892-24.291-14.362-4.072-2.187-8.143-4.327-12.214-6.515-.407-.19-.859-.476-1.04-.856-2.624-4.66-6.876-6.42-11.626-7.419-2.94-.618-5.971-1.141-8.821-2.092-1.99-.666-3.8-2.045-5.7-3.091.046-.143.046-.286.091-.428 1.266-.143 2.533-.333 3.845-.476 4.342-.475 8.73-.713 12.892.999 2.036.856 4.116 1.997 5.745 3.519 8.73 8.132 18.728 13.363 30.127 15.884 2.397.523 4.659 1.474 7.011 2.235.634.237 1.312.428 2.217.761-.407-1.094-.679-1.903-1.04-2.901.814-.286 1.583-.571 2.397-.809 7.554-2.33 15.199-3.994 23.115-3.804 12.033.333 22.03 5.374 30.263 14.694-.588.619-1.131 1.237-1.809 1.998 3.031 1.236 5.926 2.425 9.002 3.662-1.403 2.044-3.348 2.568-5.383 2.568-2.262-.048-4.298-.856-6.107-2.283-1.855-1.474-2.036-2.853-.588-4.756.181-.285.407-.523.678-.903-2.533-.809-4.93-1.617-7.328-2.33-5.564-1.665-11.083-3.329-16.647-4.851-3.573-.999-6.74 0-9.047 2.996-1.402 1.807-2.533 3.899-5.157 4.66 2.307 1.57 4.253 2.901 6.56 4.471-.453-.904-.724-1.522-.996-2.093.046-.143.091-.238.091-.38 7.328 3.186 14.928 4.375 22.799 3.424-1.448 2.235-3.438 3.566-5.791 4.185-3.618.951-7.102.237-10.404-1.427-1.764-.904-3.392-1.997-5.247-3.091.588 1.236 1.086 2.378 1.628 3.471 1.538 3.139 3.031 6.325 4.614 9.416.272.523.769 1.094 1.267 1.332 4.116 1.902 7.057 5.136 9.68 8.798 2.127 2.948 4.388 5.801 6.56 8.702.181.238.316.476.542.904-1.899.143-3.709.333-5.473.475-.181.096-.181.191-.226.286Z" fill="#000"/><path d="M156.079 345.645c-.95-1.854-2.081-3.661-2.805-5.564-2.759-6.99-5.157-14.076-6.107-21.59-.678-5.136-.588-10.272.905-15.265 2.035-6.753 2.488-13.744 2.94-20.782.407-6.42.905-12.888 2.805-19.07.181-.57.362-1.141.588-1.807 1.855.809 3.031 2.188 3.619 4.042 1.085 3.424 1.221 6.943.859 10.463-.859 8.845-.452 17.595.769 26.298.136 1.046.226 2.045.362 3.424a46.214 46.214 0 0 1-1.855-1.665 511.821 511.821 0 0 1-5.337-4.945c-.498-.476-.905-.761-1.629.19 2.85 5.564 5.519 11.461 8.776 16.93 3.845 6.372 6.016 13.125 6.604 20.686.815 10.605 3.71 20.544 10.088 29.057.724.951 1.855 1.759 1.402 3.376-1.99-.761-3.664-1.997-5.202-3.471-5.7-5.374-9.545-11.842-11.173-19.784-1.312-6.324-2.94-12.602-4.524-18.879-.452-1.855-1.357-3.567-2.307-5.326-1.085 2.473-1.357 4.993-.995 7.513.633 4.233 1.493 8.37 2.217 12.555.181 1.141.226 2.283.361 3.424-.135.095-.271.143-.361.19Z" fill="#000"/><path d="M339.419 338.322c.181-.666.271-1.332.498-1.998 1.945-4.803 1.899-9.843 1.628-14.932-.452-8.132-.95-16.264-1.448-24.396-.226-3.662-.588-7.276-.904-10.938-.045-.38-.362-.903-.679-1.046-2.623-1.094-4.161-3.186-5.292-5.754-3.936-8.798-6.74-17.025-9.409-27.63.407-.333.859-.666 1.221-.951 4.297 3.804 6.785 8.75 8.685 14.076 1.493 4.233 3.167 8.418 4.75 12.65.09.238.226.476.362.761.859-.143 1.628-.333 2.533-.475.86 2.615 1.764 5.135 2.533 7.703 1.81 5.85 3.664 11.652 5.338 17.549 2.624 9.083 1.086 17.69-3.121 25.87-1.403 2.758-2.986 5.421-4.569 8.084-.407.714-1.131 1.189-1.719 1.807-.181-.19-.317-.285-.407-.38Z" fill="#000"/><path d="m249.355 426.87-1.222-.285c.046-4.185.86-8.322.769-12.46-.181-.047-.362-.047-.543-.095-1.719 5.85-3.392 11.651-5.111 17.501-4.976-4.946-1.176-22.304 5.564-25.11.09 1.57.226 3.091.316 4.661.091 0 .136.047.227.047.407-1.093.814-2.235 1.221-3.328 3.302-8.37 8.504-15.361 14.43-21.781 4.84-5.279 9.816-10.367 14.747-15.551.136-.142.317-.285.588-.523.995 3.139.86 6.135-.317 8.988-1.673 4.042-4.206 7.514-6.875 10.843-3.936 4.946-8.143 9.654-12.033 14.647-5.066 6.468-9.183 13.553-11.399 21.733-.091.285-.227.428-.362.713Z" fill="#000"/><path d="M327.974 359.056c-.633-.428-.95-.618-1.402-.856.317 9.559-4.388 16.121-11.264 21.257-5.654 4.233-11.444 8.37-17.144 12.508-.724.523-.769.523-1.583-.333 1.221-1.903 2.397-3.805 3.619-5.707 4.659-7.086 9.409-14.172 14.068-21.257 3.121-4.708 5.428-9.797 5.881-15.599.045-.713 0-1.474-.136-2.187-.814-3.282-1.176-6.563-.724-9.939.452-3.187 1.719-5.707 4.976-7.086.407 1.332 1.131 2.711 1.131 4.137-.045 6.658 1.357 13.126 2.036 19.736.135 1.617.316 3.281.542 5.326Z" fill="#000"/><path d="M321.687 293.382c-1.267-2.616-2.353-4.851-3.484-7.181-.769.285-1.492.523-2.216.808-1.538.571-1.764.476-2.217-1.236-.769-2.901-1.538-5.802-2.307-8.655-.95-3.472-1.945-6.943-2.804-10.462-1.086-4.471-.769-8.893 1.357-13.316.814 1.855 1.538 3.567 2.307 5.231 1.357-.38 1.447-1.141 1.085-2.425-1.719-5.897-3.347-11.841-5.111-18.119.859.428 1.447.666 2.035 1.046 3.845 2.426 6.288 6.135 8.188 10.272 3.212 7.039 4.659 14.552 5.247 22.304.498 6.277.181 12.555-1.221 18.689-.226.904-.498 1.807-.859 3.044Z" fill="#000"/><path d="M144.77 259.237c-.995 3.472-1.991 6.895-3.076 10.7-.724-.856-1.403-1.474-1.855-2.235-1.764-2.949-2.081-6.278-.407-9.178 2.171-3.805 4.84-7.276 7.283-10.891.543-.808 1.176-1.569 1.719-2.473-2.941 1.189-5.564 3.139-9.047 3.52.633-.619 1.085-.999 1.538-1.427 3.257-3.091 5.066-7.086 6.333-11.366 1.04-3.614 1.945-7.323 3.03-10.89 1.222-3.995 3.484-7.133 7.193-8.845.362-.191.724-.286 1.312-.524-.86 9.987-3.71 19.07-8.55 27.583 1.403 0 2.533-1.903 4.026-.381-.678 2.568-1.447 5.136-1.99 7.752-.272 1.236-.407 2.568-.181 3.804.362 2.235.362 4.328 0 6.61-.633 3.852-.814 7.8-1.357 11.652-.543 3.994-1.855 7.656-4.705 10.604-.723.714-1.357 1.094-2.352.333.271-2.663.543-5.421.86-8.179.497-4.898.995-9.797 1.538-14.695.045-1.094-.317-1.474-1.312-1.474Z" fill="#000"/><path d="M185.979 287.58c3.936-2.045 7.736-4.09 11.581-5.944a90.736 90.736 0 0 1 8.278-3.567c2.216-.809 4.524-1.141 6.876-.713 2.85.523 5.157-.524 7.056-2.664 1.041-1.141 1.946-2.377 2.986-3.519 1.583-1.807 3.393-3.186 5.835-3.424.272-.047.589-.047.86-.047.136 0 .226.095.452.142-2.352 7.276-5.609 14.362-3.935 22.494-.136.048-.272.048-.407.095-.498-.285-.996-.523-1.493-.808-2.126-1.094-3.438-.809-4.84 1.141-.453.666-.905.856-1.629.856a874.613 874.613 0 0 0-15.787-.142c-3.031 0-6.062.19-9.092.142-2.85-.047-5.248-.998-6.741-4.042Z" fill="#000"/><path d="M336.298 251.866c.135-1.189.181-2.426.362-3.614.18-.952.904-1.142 1.492-.381 5.202 6.848 10.54 13.553 15.516 20.592 3.574 5.041 4.433 11.08 4.071 17.262-.362 5.897-1.764 11.509-3.799 16.978-.136.333-.588.523-.905.761-.181-.333-.543-.619-.543-.952.045-6.705-2.036-12.84-4.84-18.736-2.443-5.184-5.112-10.272-7.464-15.504-2.262-5.183-3.664-10.652-3.89-16.406Z" fill="#000"/><path d="M295.631 334.517c2.171-3.471 4.433-6.705 6.333-10.177 3.981-7.228 5.383-14.932 3.347-23.159-.09-.428-.226-.856-.316-1.284 0-.095-.091-.143-.272-.333a3454.057 3454.057 0 0 0-17.823 13.553c-.362-.523-.678-.951-1.085-1.521.316-.333.588-.666.904-.856 4.614-3.092 7.419-7.704 9.952-12.65 3.393-6.61 7.057-13.126 10.585-19.688.136-.238.272-.428.588-.904.95 2.426 1.9 4.566 2.624 6.801 3.755 11.651 4.026 23.254-.452 34.763-2.624 6.658-6.74 11.984-13.209 14.932-.362.19-.769.333-1.176.523Z" fill="#000"/><path d="M201.767 233.985c6.106-3.852 12.575-5.089 19.722-2.996-.995 1.474-1.854 2.901-2.804 4.232a204.231 204.231 0 0 1-3.619 5.136c-.226.333-.769.714-1.086.666-1.673-.38-3.211-.999-3.845-2.901-.407-1.284-.814-2.52-1.357-4.089-1.854 2.758-4.026 4.898-4.93 8.132-.679 2.52-1.855 4.945-3.167 7.18-1.674 2.854-4.343 4.423-7.554 4.708-1.945.191-3.981-.047-5.971-.19-.362 0-.905-.428-.996-.713-1.04-5.089-1.176-10.129 1.177-14.933 1.311-2.663 3.347-4.517 6.016-5.564.588-.237 1.176-.475 1.719-.76 3.438-1.427 4.659-1.094 6.695 2.092Z" fill="#000"/><path d="M222.258 401.666c-.18-1.95-.316-3.9-.497-5.85l.407-.285c1.267.571 2.624.999 3.8 1.76 7.735 5.041 12.394 12.317 13.842 21.733.452 2.758.226 5.564-.905 8.179-.136.285-.226.571-.362.809-.045.095-.181.142-.362.285a3249.558 3249.558 0 0 0-7.011-12.983 358.127 358.127 0 0 1-4.388-8.179c-.407-.761-.859-1.189-1.674-.809-1.99.856-3.573.095-5.247-1.141-4.976-3.662-9.726-7.609-13.028-13.078-2.081-3.471-3.393-7.276-4.071-11.318-.091-.476-.091-.904-.136-1.522 3.89.999 7.102 2.996 9.409 6.135 2.081 2.806 3.755 5.944 5.609 8.94 1.493 2.473 2.941 4.994 4.434 7.514a.36.36 0 0 1 .18-.19Z" fill="#000"/><path d="M186.477 235.316c-.452-6.372-2.307-11.793-5.112-16.834-1.899-3.424-3.98-6.753-5.971-10.082-1.312-2.187-2.261-4.423-2.216-7.086.045-2.235.859-4.137 1.945-5.992.407-.665.814-.523 1.357-.285 5.202 2.425 9.047 6.372 11.49 11.794 2.895 6.42 4.75 13.173 6.649 19.973.453 1.665-.09 3.091-1.357 4.042-2.08 1.475-4.297 2.854-6.785 4.47Z" fill="#000"/><path d="M301.873 369.518c.407 5.184-.452 9.892-2.804 14.267-2.172 3.995-5.202 7.181-8.821 9.606-9.681 6.515-18.683 14.029-27.775 21.448-.136.095-.271.19-.452.333 2.261-6.04 5.111-11.461 9.635-15.884 9.952-9.749 19.813-19.593 29.675-29.437.09-.095.18-.142.542-.333Z" fill="#000"/><path d="M297.938 310.835c-.769 4.993-1.312 9.939-3.393 14.504l-12.349 26.964c-.091.19-.226.333-.453.714-.588-3.662-.497-6.991.362-10.32 1.176-4.423 2.579-8.75 3.664-13.173.634-2.52.905-5.088 1.403-7.989-8.505 3.043-11.807 10.509-15.426 17.69-.09-.047-.226-.047-.316-.095.09-1.379.135-2.758.362-4.137 1.176-7.419 5.156-12.888 10.72-17.31 4.298-3.377 9.093-5.517 14.295-6.753.317 0 .633-.048 1.131-.095Z" fill="#000"/><path d="M201.314 335.706c1.9.618 3.257 1.855 4.343 3.282 2.669 3.519 5.383 6.99 7.735 10.7 4.931 7.751 9.274 15.931 12.395 24.681.678 1.95 1.086 3.995 1.628 6.039-.135.048-.316.143-.452.191-.679-.761-1.312-1.522-1.99-2.235-6.017-6.991-12.033-13.934-18.004-20.972-4.931-5.755-6.876-12.507-5.926-20.164 0-.475.136-.951.271-1.522Z" fill="#000"/><path d="M327.839 246.397c-4.117-.285-7.555-2.045-10.54-4.993-2.579-2.568-4.433-5.659-6.062-8.893-5.066-9.892-10.087-19.831-15.109-29.77-.045-.095-.09-.238-.181-.618 1.855.903 3.574 1.712 5.293 2.52 4.931 2.235 8.776 5.659 10.902 11.033 2.081 5.231 4.342 10.367 6.378 15.598 2.171 5.707 4.433 11.271 9.319 15.123Z" fill="#000"/><path d="M169.514 205.832c1.311-.618 2.216-.285 3.121.999 5.428 7.894 8.414 16.739 9.771 26.298.995 6.848 1.221 13.696 1.131 20.592 0 .38-.046.76-.046 1.141-3.257.475-6.106-1.474-6.785-4.993-.633-3.282-.905-6.658-1.131-9.987-.271-4.09-.226-8.18-.633-12.222-.452-4.755-1.855-9.321-4.026-13.506-1.402-2.663-1.583-5.421-1.402-8.322Z" fill="#000"/><path d="M165.985 249.773c.588-1.379 1.448-1.617 2.533-.903 3.393 2.235 6.967 4.28 10.133 6.753 2.624 2.045 5.248 3.043 8.414 2.235 3.438-.904 6.921-1.807 10.359-2.806.724-.19 1.176-.19 1.448.618.362 1.047.859 2.093 1.176 3.186.452 1.522 0 2.616-1.493 3.092-1.9.618-3.845.998-5.79 1.379-2.443.475-4.931.761-7.374 1.236-.497.095-1.085.618-1.311 1.094-1.719 3.995-3.574 4.47-6.288 1.141-3.031-3.757-5.745-7.894-8.55-11.889-1.131-1.712-2.171-3.424-3.257-5.136Z" fill="#000"/><path d="M178.651 356.155c3.438 1.712 6.198 3.995 8.55 6.801 3.89 4.612 6.288 10.129 8.595 15.645 2.216 5.232 4.297 10.463 7.418 15.218-3.211-.666-12.168-9.416-16.194-15.836-4.162-6.61-6.785-13.886-8.369-21.828Z" fill="#000"/><path d="M301.24 256.859c-2.262-.808-4.478-1.569-6.604-2.378-6.062-2.282-12.304-3.804-18.728-4.422-3.031-.286-5.971-.999-8.64-2.663-2.85-1.807-4.614-4.375-5.338-8.132 1.493.095 2.895.047 4.252.285 11.49 1.855 22.211 5.992 31.756 13.03 1.99 1.522 2.85 2.758 3.302 4.28Z" fill="#000"/><path d="M333.674 347.69c-.769-2.806-1.493-5.278-2.081-7.799-1.221-5.136-2.443-10.319-2.578-15.693-.136-4.851 1.176-9.226 3.709-13.221.452-.713 1.176-1.474 1.945-1.759 1.041-.381 2.443-.714 3.257-.238 1.176.666 1.538 2.235 1.357 3.709-.497 3.662-.95 7.324-1.538 10.986-1.221 7.751-2.488 15.455-3.754 23.207-.091.19-.181.333-.317.808Z" fill="#000"/><path d="M170.192 326.338c-.09-1.046-.362-2.045-.316-3.091.407-5.945-1.358-11.223-4.072-16.312-1.673-3.091-3.392-6.182-4.704-9.463-1.583-3.852-1.81-7.942-.95-12.08.09-.38.181-.76.362-1.474.995.761 1.99 1.332 2.759 2.14 2.624 2.663 4.162 6.087 5.428 9.606 2.624 7.134 4.117 14.553 3.891 22.209-.091 2.901-.453 5.802-1.9 8.417-.136 0-.317 0-.498.048Z" fill="#000"/><path d="M289.207 208.971c4.343 1.236 6.967 3.947 8.098 8.179 1.221 4.423 1.764 8.941 1.854 13.554.045 2.996.136 5.992.407 8.988.453 4.898 2.036 9.32 5.202 13.03-1.311.238-3.528-.523-5.156-1.76-3.257-2.425-4.524-5.992-4.931-9.986-.679-6.896-1.131-13.792-1.945-20.64-.317-2.568-1.403-5.088-2.172-7.608-.316-1.189-.814-2.331-1.357-3.757Z" fill="#000"/><path d="M258.99 333.947c-1.991 3.804-3.709 7.942-6.197 11.461-4.75 6.705-9.952 13.03-14.973 19.545-.091.095-.181.19-.589.571 0-1.617-.135-2.996.046-4.328.814-6.705 3.8-12.364 7.69-17.596 3.121-4.184 6.785-7.703 11.354-10.176.905-.523 1.628-.476 2.669.523Z" fill="#000"/><path d="M143.639 231.607c-.995-4.423-.588-8.465 1.266-12.174 2.217-4.423 4.795-8.655 7.329-12.888 1.764-2.948 3.618-5.849 5.473-8.75.136-.238.317-.475.588-.808 1.629 1.902 1.945 4.089 1.764 6.42-.181 2.615-1.176 4.945-2.578 7.133-4.433 6.8-8.821 13.553-13.254 20.354-.181.142-.317.333-.588.713Z" fill="#000"/><path d="M186.341 175.064c2.624.38 5.112.475 7.509 1.141 4.434 1.284 4.026 5.516 1.9 8.417-.135.19-.497.238-.723.238-.453-.048-.905-.095-1.357-.238-3.846-1.189-7.736-1.046-11.671-.285-1.584.333-3.212.475-4.795.713-.769.143-1.267-.047-1.538-.856-.272-.713-.634-1.426-.86-2.187-.859-2.949.045-4.946 2.941-5.612 2.804-.618 5.744-.903 8.594-1.331Z" fill="#000"/><path d="M190.548 335.659c-11.263-5.707-18.682-21.686-14.882-31.53 2.804 3.615 6.061 6.801 7.237 11.414 1.674 6.467 4.388 12.507 7.012 18.546.181.476.362.904.633 1.57Z" fill="#000"/><path d="M164.945 210.302c-.453-3.091-1.086-6.134-1.357-9.226-.407-4.993.362-9.796 2.759-14.219.317-.57.633-1.093 1.041-1.617 1.538-1.997 3.483-2.235 5.745-.808 1.854 1.141 2.352 2.758 1.311 5.184a2237.038 2237.038 0 0 1-6.74 15.408l-2.307 5.278h-.452Z" fill="#000"/><path d="M252.928 200.173c.181-5.089-2.397-8.465-6.016-11.128-1.674-1.237-3.348-2.521-5.383-3.995 1.221-.238 2.081-.475 2.94-.618 6.243-1.189 12.485-1.76 18.773-.428 2.488.523 4.885 1.379 6.966 2.996.181.143.362.333.86.761-9.952-1.712-15.968 2.33-18.14 12.412Z" fill="#000"/><path d="M207.15 297.662c-.814-1.046-1.674-2.093-2.85-3.567 2.171-.19 4.026-.571 5.835-.475.905.047 2.081.808 2.488 1.616 2.217 4.28 4.298 8.656 4.614 13.649.136 2.33-.362 4.565-2.035 6.563-1.041-3.995-2.036-7.752-3.076-11.699-2.669 2.996-5.067 6.61-9.907 4.66 1.674-3.661 3.302-7.181 4.931-10.747Z" fill="#000"/><path d="M258.266 356.678c-4.252-10.985 2.533-27.202 13.887-31.434-4.659 10.557-9.228 20.924-13.887 31.434Z" fill="#000"/><path d="M251.797 350.591c.679 2.14.634 3.995.272 5.802-1.991 10.415-6.695 19.212-14.385 26.155-.226.238-.543.381-.995.381.814-1.855 1.673-3.757 2.488-5.612 1.628-3.709 3.392-7.371 3.89-11.508.136-1.141.181-2.33.362-3.519.452-2.663 1.583-4.946 3.347-6.848 1.538-1.617 3.212-3.139 5.021-4.851Z" fill="#000"/><path d="M259.985 262.756c-2.714 2.33-5.157 4.518-7.645 6.658-4.161 3.566-8.368 7.086-11.354 11.841-1.538 2.378-2.669 5.041-4.116 7.752.09-1.57.09-3.044.316-4.518 1.041-7.229 3.936-13.458 9.274-18.261 3.935-3.567 8.821-4.851 13.525-3.472Z" fill="#000"/><path d="M208.281 237.789c1.945 4.518 2.759 8.988 2.307 13.601-.227 2.045-.588 4.042-1.131 5.992-.498 1.902-1.674 3.234-3.619 3.519-3.709.571-6.062-2.425-4.75-6.134.995-2.806 2.217-5.517 3.393-8.275 1.221-2.758 2.443-5.564 3.8-8.703Z" fill="#000"/><path d="M190.593 350.306c1.493-2.616 2.534-5.326 2.941-8.37.543-4.232-.453-8.227-1.764-12.127-.634-1.854-1.403-3.614-2.126-5.421-.272-.666-.634-1.236 0-1.997.678-.761 1.13-.095 1.628.047 2.217.809 4.297 1.807 5.609 3.995 3.664 6.04 2.533 16.549-2.443 21.448-1.04 1.046-2.397 1.807-3.573 2.71-.045-.047-.181-.142-.272-.285Z" fill="#000"/><path d="M278.622 179.248c1.991-.142 4.117.286 5.7 1.808 2.262 2.092 4.433 4.327 6.333 6.8 2.533 3.329 4.795 6.896 7.147 10.367.091.143.136.285.317.571-2.352-.095-4.343-.761-6.198-1.95-2.397-1.569-4.071-3.804-5.564-6.23-.949-1.569-1.764-3.281-2.804-4.755-1.583-2.283-3.302-4.423-4.931-6.611Z" fill="#000"/><path d="M321.008 193.658h23.613c-.724 1.854-2.036 2.996-3.619 3.662-4.614 1.807-9.364 2.282-14.159.951-2.397-.714-4.342-2.188-5.835-4.613Z" fill="#000"/><path d="M286.312 243.353c-8.685.761-15.335-7.418-13.797-13.648 4.433.143 12.666 8.227 13.797 13.648Z" fill="#000"/><path d="M261.975 318.206c-3.573 6.943-6.061 14.314-13.389 18.451.09-1.617-.046-2.901.226-4.089 1.628-6.944 5.79-11.604 12.123-14.124.226-.096.498-.143 1.04-.238Z" fill="#000"/><path d="M291.831 276.547c-.452-3.471-.769-6.61-1.267-9.749-.723-4.518-2.261-8.655-5.564-11.889-.226-.19-.271-.903-.135-1.141.226-.333.769-.571 1.131-.523 4.161.523 6.468 3.139 7.237 7.419.86 4.612.995 9.178-.407 13.696-.136.475-.362.951-.588 1.426 0 .191-.136.333-.407.761Z" fill="#000"/><path d="M184.849 272.124c.452-2.805 2.035-4.47 4.387-5.468 3.438-1.427 7.102-1.57 10.812-1.808-3.845 4.994-10.993 8.418-15.199 7.276Z" fill="#000"/><path d="M216.106 295.284c5.429.666 7.871 4.66 9.862 9.464-2.398-1.047-4.659-1.95-6.831-3.044-2.307-1.236-3.438-3.804-3.031-6.42Z" fill="#000"/><path d="M342.766 198.794c1.041 1.189 1.946 2.187 2.986 3.376-.86.809-1.809 1.712-2.805 2.616-.678.618-1.266.428-1.854-.19a59.427 59.427 0 0 1-1.674-1.95c1.131-1.284 2.171-2.521 3.347-3.852Z" fill="#000"/><path d="M233.386 217.293c1.358.856 2.76 1.712 4.072 2.615 3.754 2.664 7.78 3.187 12.123 1.95 2.262-.666 4.569-1.189 7.238-1.854-10.902 15.265-21.623 30.245-32.299 45.273-.135-.048-.226-.096-.362-.096.227-1.616.362-3.186.724-4.755 1.041-4.803 3.121-9.178 5.474-13.411a253.266 253.266 0 0 1 5.609-9.701c3.031-4.946 2.714-9.749-.272-14.552-.995-1.665-1.809-3.424-2.714-5.136.181-.143.272-.238.407-.333Z" fill="#000"/></svg>
