<svg width="1080" height="1080" viewBox="0 0 1080 1080" fill="none" xmlns="http://www.w3.org/2000/svg"><path d="M351.6 489.2c-3.9-18.9-6.1-37.8 0-56.4 1.7-5.2 4.1-10.2 6.9-14.9 4.5-7.8 17.1-9.8 23.4-4.2 2.1 1.9 2.8 3.8 1.4 6.2-1.5 2.5-2.9 5.1-4.6 7.5-2.6 3.6-5.3 7-8.2 10.4-8.1 9.5-11.9 20.9-14.5 32.8-1.4 6.1-2.9 12.3-4.4 18.6m11.2-52.8c3.9-5.1 7.5-9.9 11.2-14.7.1-.2.2-.5.3-.7-7.7-1.1-13.2 6.1-11.5 15.4" fill="#000"/><path d="M581.9 460.2c-6.1-1.3-11.7-2.3-17.2-3.5-11.1-2.4-22.2-4.7-33.3-7.3-2.2-.5-4.3-1.9-6.2-3.3-3.1-2.3-5.7-5.1-8.8-7.4-1.9-1.4-4.2-2.2-6.3-3.1-1.9-.7-3.9-1.1-5.7-1.8-5.8-2.4-8.9-6.8-8.8-13 .1-3.7-1.3-5.5-4.5-7.1-6.4-3.1-12.6-6.7-18.9-10.2-16.8-9.4-33.7-10.2-50.9-.8-7.1 3.9-14.2 7.6-21.4 11.4l-1.2.8c17 8.3 33.7 16.4 50.5 24.6.1-.2.2-.3.3-.5-11.7-7.4-23.5-14.9-35.3-22.4 3.6-8.1 10-12 18.5-12.8 28.8-2.8 55.1 11.8 68.3 38.2 3.9 7.8 6.7 16.3 9.8 24.5 1.3 3.4.4 6.6-1.9 9.5-.6.7-1 2-.8 2.8 2.2 7.5 4.6 15 7 22.5 5.8 18.3 15 34.4 29.9 46.9 1 .8 1.4 2.1 1.9 3.5-5.5-.7-10.6-2.5-15.4-5-7.2-3.8-13.1-9.1-17.3-16.1-7.2-11.9-14.4-23.9-21.5-35.8-.8-1.3-1.5-2.6-2.8-3.7 1.9 4.2 3.7 8.5 5.7 12.7 8.5 18 16.8 36.1 25.5 53.9 5.4 11.1 5.1 21.2-2.4 31.2-3.1 4.2-5.8 8.7-8.6 13.1-7.6 12.2-14.2 24.9-16.7 39.2-.4 2.3-.6 4.7-1 7.1-1.2 7.9-5.9 12.7-13.9 13-13.7.5-25.2 6.5-36.4 13.4-5 3.1-10.1 6.5-15.6 8.5-7.7 2.8-15.6 2.1-22.6-2.7-4.5-3.1-7.4-7.3-7.7-13-.1-2.8 0-5.6 0-8.7 2.1-.3 3.9.3 5.5 2.2 2.1 2.6 4.4 4.9 6.8 7.2 3.3 3 7.2 4 11.2 1.8 5.5-3 10.9-6.1 16-9.6 8.1-5.4 15.7-11.6 25-14.9 1.7-.6 3.5-1.3 5.3-1.6 4.7-.6 7.9-3.4 10-7.3 3.2-5.7 6.4-11.4 9-17.3 4.1-9 7.8-18.2 11.6-27.3 3.7-8.8 3.2-17.9 1.7-27.1-4.8-29.7-14.9-57.6-30.1-83.6-.7-1.2-1.2-2.6-2.2-4.8-.8 1.7-1.6 2.8-1.7 3.9-2.4 14.5-4.7 28.9-7 43.4-.1.5-.2 1-.3 1.6-12-9.2-18.4-44.4-3.4-61.4-.9-.6-1.8-1.2-2.6-1.7-16.5-10.1-34.2-13.3-53.1-9.4-12.1 2.5-21 9.8-27.1 20.4-2.9 5.1-5.1 10.6-7.5 15.9-.4.9-.8 1.8-1.4 3.4-1.6-7.7-1.7-14.8-.4-21.8 2.3-12.4 8.8-22.6 16.8-32 5.4-6.4 11.2-12.6 16.8-19 .8-.9 1.6-1.9 2.7-3.1-.9-.5-1.7-1-2.5-1.4-10.5-5.3-21.1-10.7-31.7-16-1.6-.8-2.3-1.6-1.9-3.5 1.1-5 1.7-10.1 2.9-15.1 2.9-11.2 9.9-18.6 21.3-20.9 14.5-2.9 29.1-3.3 43.6.2 13.2 3.2 23.2 10.9 30.6 22.3 3.8 6 8.2 11.5 13.7 16 9.4 7.7 20.3 10.8 32.3 9.9 2.9-.2 5.3.4 7.3 2.3 2.2 2 4.4 4.2 6.4 6.4 4.6 4.9 10 7.3 16.9 6.6 11.2-1.1 20.8 2.7 27.7 11.6 6 7.8 11.4 16.3 17.5 25.1m-83.4 2.7c.3-.1.5-.3.8-.4-4-8-7.8-16.1-12.2-23.8-4.4-7.8-11.1-13.3-19.8-16.1-2.4-.8-3.7-.2-4.8 2.1 12 12.8 24 25.5 36 38.2m-85.8-77.7c5 .9 9.4 1.8 13.8 2.5 3.2.5 6.3 1.1 9.5 1.1 3.7.1 6.4-2.4 5.8-5-1.2-5.1-4.2-8.8-9.2-10.5-4.4-1.5-8.6-.5-11.9 2.9-2.6 2.8-5 5.8-8 9m-38.2 8.4c5.7-2.7 11.4-5.4 17-8.2.4-.2.7-1 .8-1.5.2-1.9.3-3.8.3-5.8-.1-3.4-1.6-4.8-5-4.8-8-.1-15.7 11.5-13.1 20.3m193.6 55c.1-.3.1-.6.2-1-1.4-.3-2.8-.8-4.2-.9-3.2-.1-6.4.2-9.6-.1-9.5-.9-18-5.8-18.8-16.2 0-.6-1.3-1.1-2-1.7-.5 5.9 1.6 10.3 5.7 13.5 8.6 6.7 18.6 6.9 28.7 6.4" fill="#000"/><path d="M735.4 551.3c0-.2.1-.4.1-.6 3.9-.3 7.9-.6 12.1-1-.5-.9-.8-1.4-1.2-1.9-4.8-6.1-9.8-12.1-14.5-18.3-5.9-7.7-12.3-14.5-21.4-18.5-1.1-.5-2.2-1.7-2.8-2.8-3.5-6.6-6.8-13.2-10.2-19.8-1.2-2.4-2.4-4.8-3.6-7.3 4.1 2.3 7.7 4.6 11.6 6.5 7.3 3.5 15 5 23 3 5.3-1.3 9.6-4.1 12.8-8.8-17.5 2-34.2-.5-50.4-7.2-.1.3-.2.5-.2.8l2.2 4.4c-5.1-3.3-9.4-6.1-14.5-9.4 5.8-1.7 8.3-6 11.4-9.8 5.2-6.3 12.2-8.4 20-6.3 12.3 3.2 24.6 6.7 36.8 10.2 5.4 1.5 10.7 3.2 16.2 4.9-.6.8-1 1.3-1.5 1.9-3.2 4-2.9 6.9 1.3 10 4 3 8.6 4.7 13.5 4.8 4.6.1 8.8-1.1 11.9-5.4-6.8-2.6-13.2-5.1-19.9-7.7 1.5-1.6 2.7-2.9 4-4.2-18.2-19.6-40.3-30.2-66.9-30.9-17.5-.5-34.4 3-51.1 8-1.7.5-3.4 1.1-5.3 1.7.8 2 1.4 3.8 2.3 6.1-2-.6-3.4-1.1-4.9-1.6-5.2-1.6-10.2-3.6-15.5-4.7-25.2-5.3-47.3-16.3-66.6-33.4-3.6-3.2-8.2-5.6-12.7-7.4-9.2-3.6-18.9-3-28.5-2.1-2.8.3-5.6.7-8.5 1-.1.3-.1.6-.2.9 4.2 2.2 8.1 5.1 12.6 6.5 6.3 2 13 3.2 19.5 4.4 10.5 2 19.9 5.8 25.7 15.6.5.8 1.5 1.4 2.3 1.8 9 4.6 18 9.1 27 13.7 18.3 9.4 36.7 18.5 53.7 30.2 17.9 12.2 33.5 26.7 44.9 45.4 2.8 4.5 5.5 9 8.2 13.6.3 0 .7.1 1 .1.6-1.6 1.2-3.3 1.7-4.7 7.4 2.3 11.5 7.8 14.8 14.7-4-.6-7.7-1.2-11.9-1.9 1.2 2.4 2 4.4 3.1 6.3 6.6 10.6 15.7 18.6 26.3 24.9 11.2 6.6 22.8 12.6 34.1 19.1 11.1 6.4 21 14.2 27.4 25.6 1.5 2.7 3.6 3.2 6.4 3.3-1.3-12.6-5.1-24-12.5-34.1-8.6-11.7-20.2-19.5-33-25.9-3.9-2-7.8-3.8-11.7-5.7.1-.3.1-.4.1-.5l1.2-1.2c7-7.1 12-15.2 13.5-25.3.6-3.8.3-7.6-1.6-11.1-2.9 1.3-5.6 2.5-8.3 3.6-3.2 1.4-5.5 3.4-6.4 7-1.3 5.5-2.8 11-4.2 16.5-.6 2.5-1.1 5.1-1.7 7.8-3.7-1.7-7.3-3.3-11-4.8" fill="#fff"/><path d="M348 815.1c.2-.1.5-.1.7-.2-.3-2.4-.3-4.8-.8-7.2-1.6-8.8-3.5-17.6-4.9-26.4-.8-5.3-.3-10.6 2.2-15.8 2 3.7 4 7.3 5.1 11.2 3.5 13.2 7.1 26.4 10 39.7 3.6 16.7 12.1 30.3 24.7 41.6 3.4 3.1 7.1 5.7 11.5 7.3.9-3.4-1.5-5-3.1-7.1-14.1-17.9-20.5-38.8-22.3-61.1-1.3-15.9-6-30-14.6-43.5-7.3-11.5-13.1-23.9-19.4-35.6 1.6-2 2.5-1.4 3.6-.4 3.9 3.5 7.8 6.9 11.8 10.4 1.2 1.1 2.4 2.1 4.1 3.5-.3-2.9-.5-5.1-.8-7.2-2.7-18.4-3.6-36.8-1.7-55.3.8-7.4.5-14.9-1.9-22-1.3-3.9-3.9-6.7-8-8.5-.5 1.4-.9 2.6-1.3 3.8-4.2 13-5.3 26.5-6.2 40.1-.9 14.7-2 29.4-6.5 43.7-3.3 10.5-3.4 21.3-2 32.1 2.1 15.9 7.5 30.8 13.5 45.4 1.8 3.8 4.2 7.6 6.3 11.5" fill="#fff"/><path d="M753.3 799.7c.3.2.5.4.8.6 1.3-1.2 2.9-2.3 3.8-3.8 3.5-5.6 7-11.2 10.1-17 9.3-17.2 12.7-35.3 6.9-54.4-3.7-12.4-7.8-24.6-11.8-36.9-1.8-5.4-3.7-10.7-5.6-16.2-1.9.3-3.7.7-5.6 1-.3-.6-.6-1.1-.8-1.6-3.5-8.9-7.2-17.7-10.5-26.6-4.2-11.2-9.7-21.5-19.2-29.6-.8.6-1.8 1.3-2.7 2 5.9 22.3 12.1 39.6 20.8 58.1 2.5 5.4 6 9.8 11.7 12.1.7.3 1.4 1.4 1.5 2.2.8 7.7 1.5 15.3 2 23 1.2 17.1 2.2 34.2 3.2 51.3.6 10.7.7 21.3-3.6 31.4-.4 1.5-.7 3-1 4.4" fill="#fff"/><path d="m554.2 985.9.7-1.4c5-17.1 14-32.1 25.2-45.7 8.6-10.5 17.9-20.4 26.6-30.8 5.9-7 11.5-14.3 15.2-22.8 2.7-6.1 2.9-12.3.7-18.9-.6.5-1 .7-1.3 1.1-10.9 10.9-21.9 21.6-32.6 32.7-13.1 13.5-24.5 28.2-31.9 45.8-1 2.3-1.8 4.6-2.7 7-.2 0-.3-.1-.5-.1-.2-3.2-.5-6.5-.7-9.8-14.9 5.9-23.3 42.5-12.3 52.8 3.8-12.3 7.5-24.6 11.3-36.8.4.1.8.1 1.2.2.1 8.7-1.6 17.3-1.7 26.2 1.1.1 1.9.3 2.8.5" fill="#fff"/><path d="M728 843.3c-.5-4.3-.9-7.8-1.3-11.3-1.5-13.8-4.6-27.4-4.5-41.5 0-2.9-1.6-5.8-2.5-8.7-7.2 2.9-10 8.2-11 14.9-1 7.1-.3 14 1.6 20.9.4 1.5.5 3.1.3 4.6-1 12.3-6.1 22.9-13 32.8-10.3 14.9-20.7 29.8-31.1 44.7-2.8 4-5.4 8-8 12 1.8 1.8 1.9 1.9 3.5.7 12.7-8.8 25.4-17.4 37.9-26.3 15.2-10.8 25.6-24.6 24.9-44.7 1.1.6 1.7 1 3.2 1.9" fill="#fff"/><path d="M714.1 705.2c.8-2.7 1.4-4.6 1.8-6.5 3.1-12.9 3.7-26.1 2.7-39.3-1.3-16.3-4.5-32.1-11.6-46.9-4.2-8.7-9.6-16.5-18.1-21.6-1.2-.8-2.6-1.3-4.5-2.2 3.9 13.2 7.5 25.7 11.3 38.1.8 2.7.6 4.3-2.4 5.1-1.6-3.5-3.3-7.1-5.1-11-4.7 9.3-5.3 18.5-3 28 1.8 7.4 4.1 14.6 6.2 22 1.7 6.1 3.4 12.2 5.1 18.2 1 3.6 1.5 3.9 4.9 2.6 1.6-.6 3.2-1.1 4.9-1.7 2.7 5 5.1 9.8 7.8 15.2" fill="#fff"/><path d="M323 633.4c2.3 0 3.1.8 2.8 3-1.2 10.3-2.3 20.6-3.4 30.9-.6 5.8-1.3 11.6-1.9 17.2 2.2 1.6 3.7.8 5.2-.7 6.3-6.1 9.2-13.8 10.4-22.3 1.2-8.2 1.6-16.4 3-24.5.8-4.7.8-9.2 0-13.9-.4-2.6-.2-5.4.4-8 1.3-5.5 2.9-10.9 4.4-16.3-3.3-3.2-5.8.7-8.9.8 10.8-17.9 17-37 18.9-58-1.2.5-2.1.8-2.9 1.1-8.3 3.7-13.3 10.3-15.9 18.6-2.4 7.6-4.4 15.3-6.7 22.9-2.8 9.1-6.8 17.4-14 23.9-1 .9-2 1.8-3.4 3 7.7-.8 13.6-4.9 20-7.4-1.2 1.9-2.6 3.4-3.8 5.2-5.4 7.6-11.3 14.9-16.1 22.9-3.7 6.2-3 13.1.9 19.3 1 1.6 2.5 2.9 4.1 4.7 2.5-7.9 4.7-15.2 6.9-22.4" fill="#fff"/><path d="M414.1 693c3.3 6.4 8.6 8.4 14.8 8.5 6.7.1 13.4-.3 20.1-.3 11.6 0 23.3.2 34.9.3 1.6 0 2.6-.4 3.6-1.8 3.1-4.2 6.1-4.8 10.7-2.4 1.1.5 2.2 1.1 3.3 1.7.3-.1.6-.1.9-.2-3.7-17 3.5-32 8.7-47.3-.5-.2-.7-.3-1-.3-.6 0-1.3 0-1.9.1-5.3.5-9.4 3.4-12.9 7.2-2.2 2.4-4.3 5-6.6 7.4-4.2 4.5-9.3 6.7-15.6 5.6-5.2-.9-10.3-.2-15.2 1.5q-9.3 3.3-18.3 7.5c-8.4 4-16.8 8.3-25.5 12.5" fill="#fff"/><path d="M746.4 617.9c.5 12.1 3.6 23.6 8.7 34.5 5.2 11 11.1 21.7 16.5 32.6 6.2 12.4 10.7 25.3 10.7 39.4 0 .7.8 1.3 1.2 2 .7-.5 1.7-.9 2-1.6 4.4-11.5 7.5-23.3 8.4-35.7.9-13.1-1-25.7-9-36.3-11-14.8-22.8-28.9-34.3-43.3-1.3-1.6-2.9-1.2-3.3.8-.5 2.5-.6 5-.9 7.6" fill="#fff"/><path d="M656.5 791.7c.9-.4 1.8-.6 2.6-1 14.3-6.2 23.4-17.4 29.2-31.4 9.9-24.2 9.3-48.6 1-73.1-1.6-4.7-3.8-9.3-5.8-14.3-.7 1-1 1.4-1.3 1.9-7.8 13.8-15.8 27.5-23.4 41.4-5.6 10.4-11.8 20.1-22 26.6-.7.5-1.3 1.2-2 1.8.9 1.1 1.6 2.1 2.4 3.2 13.3-9.6 26.3-19 39.4-28.5.4.4.5.5.6.7.3.9.5 1.8.7 2.7 4.4 17.3 1.4 33.5-7.4 48.7-4.2 7.1-9.2 14-14 21.3" fill="#fff"/><path d="M449 580.3c-4.6-6.7-7.2-7.5-14.6-4.2-1.3.6-2.5 1.1-3.8 1.6-5.9 2.3-10.4 6.1-13.3 11.7-5.2 10.1-4.8 20.7-2.6 31.4.1.6 1.4 1.5 2.2 1.5 4.4.3 8.8.7 13.2.4 7-.6 13-3.9 16.7-9.9 2.9-4.7 5.4-9.8 7-15.1 2-6.8 6.8-11.3 10.9-17.1 1.1 3.2 2 5.9 3 8.6 1.4 4 4.8 5.3 8.5 6.1.7.1 1.9-.7 2.4-1.4 2.8-3.5 5.4-7.2 8-10.8 2.1-2.9 4-5.8 6.2-8.9-16-4.5-30.3-2-43.8 6.1" fill="#fff"/><path d="M494.3 932.9c-.1.1-.3.2-.4.4-3.3-5.3-6.5-10.6-9.8-15.8-4-6.3-7.8-12.9-12.4-18.8-5.1-6.7-12.2-10.9-20.8-12.9.1 1.3.1 2.3.3 3.2 1.4 8.5 4.3 16.5 9 23.8 7.3 11.6 17.8 19.8 28.8 27.5 3.7 2.6 7.2 4.2 11.6 2.4 1.8-.7 2.8.1 3.7 1.7 3.2 5.8 6.5 11.5 9.7 17.2 5.1 9.1 10.3 18.2 15.5 27.3.4-.3.6-.4.8-.6.3-.6.6-1.1.8-1.7 2.5-5.5 3-11.4 2-17.2-3.3-19.8-13.5-35.2-30.6-45.7-2.6-1.6-5.6-2.5-8.4-3.7l-.9.6c.4 4.1.7 8.2 1.1 12.3" fill="#fff"/><path d="M415.2 583.1c5.4-3.4 10.3-6.2 14.9-9.5 2.8-2 4-5 3-8.5-4.1-14.3-8.3-28.5-14.7-42-5.4-11.4-13.9-19.7-25.4-24.8-1.2-.5-2.1-.8-3 .6-2.4 3.9-4.2 7.9-4.3 12.6-.1 5.6 2 10.3 4.9 14.9 4.4 7.1 9.1 14 13.2 21.2 6.3 10.7 10.4 22.1 11.4 35.5" fill="#fff"/><path d="M670.3 865.3c-.7.4-1 .5-1.2.6-21.9 20.6-43.6 41.4-65.6 61.9-10 9.3-16.4 20.7-21.3 33.4.5-.3.8-.5 1-.7 20-15.6 39.9-31.4 61.4-45.1 8-5.1 14.7-11.8 19.5-20.2 5.2-9.1 7.1-19 6.2-29.9" fill="#fff"/><path d="M518.9 545.2c-.3.2-.5.4-.8.6 2 3.6 3.7 7.4 6 10.8 6.5 10.1 7.3 20.2.6 30.6-4.3 6.7-8.4 13.5-12.4 20.4-5.2 8.9-9.9 18-12.1 28.2-.7 3.3-1.1 6.7-1.6 10 .3.1.5.2.8.2 23.6-31.5 47.3-63 71.4-95.2-5.9 1.4-11 2.6-16 3.9-9.6 2.6-18.5 1.4-26.8-4.1-3-1.8-6.1-3.5-9.1-5.4" fill="#fff"/><path d="M661.6 741.9c-1 .2-1.8.2-2.4.4-11.5 2.7-22.2 7.1-31.6 14.2-12.3 9.2-21.1 20.8-23.7 36.4-.5 2.9-.5 5.8-.8 8.7.2.1.5.1.7.2 8-15.1 15.2-30.8 34.1-37.2-1.1 6.1-1.7 11.5-3.1 16.8-2.5 9.3-5.6 18.4-8.1 27.7-1.9 6.9-2.2 14-.8 21.7.5-.8.8-1.1 1-1.5l27.3-56.7c4.5-9.8 5.7-20.2 7.4-30.7" fill="#fff"/><path d="M448 794.2c-.3 1.3-.5 2.2-.7 3.2-2.1 16.1 2.2 30.3 13.1 42.4 13.2 14.7 26.6 29.4 39.8 44.1 1.4 1.6 2.9 3.2 4.4 4.7.3-.1.7-.3 1-.4-1.2-4.2-2.1-8.6-3.6-12.7-6.9-18.5-16.5-35.6-27.4-51.9-5.2-7.8-11.2-15.2-17.1-22.5-2.3-3.1-5.3-5.6-9.5-6.9" fill="#fff"/><path d="M727.7 606.4c-10.8-8.2-15.8-19.8-20.6-31.7-4.5-11-9.5-21.8-14.1-32.8-4.7-11.3-13.2-18.5-24.1-23.2-3.8-1.6-7.6-3.4-11.7-5.3.2.8.3 1 .4 1.3 11.1 20.9 22.3 41.7 33.4 62.6 3.7 6.8 7.7 13.3 13.4 18.7 6.5 6.1 14.2 9.9 23.3 10.4" fill="#fff"/><path d="M377.7 521.1c-.4 6.1.1 11.8 3.1 17.5 4.8 8.8 7.9 18.4 8.9 28.4.9 8.5.7 17.2 1.4 25.7.5 7 1.1 14.1 2.5 21 1.4 7.4 7.8 11.5 15 10.5 0-.8.1-1.6.1-2.4.2-14.5-.4-29-2.5-43.3-3-20-9.5-38.7-21.6-55.3-2-2.7-4-3.4-6.9-2.1" fill="#fff"/><path d="M369.9 613.5c2.4 3.6 4.7 7.2 7.2 10.7 6.2 8.4 12.1 17 18.9 25 6 7.1 10.2 6 13.9-2.4.5-1 1.8-2.1 2.9-2.3 5.4-1 10.9-1.6 16.3-2.6 4.3-.8 8.7-1.6 12.8-2.9 3.3-1 4.3-3.2 3.3-6.5-.7-2.3-1.8-4.4-2.6-6.7-.6-1.7-1.6-1.7-3.2-1.3-7.6 2.1-15.2 4-22.9 5.9-7 1.7-12.8-.4-18.6-4.7-7.1-5.3-14.9-9.5-22.4-14.2-2.4-1.4-4.3-.9-5.6 2" fill="#fff"/><path d="M397.9 837.2c3.6 16.7 9.3 32 18.5 45.9 8.9 13.5 28.7 31.9 35.8 33.3-7-10-11.6-21-16.4-32-5.2-11.7-10.5-23.2-19-32.9-5.3-5.9-11.3-10.7-18.9-14.3" fill="#fff"/><path d="M668.9 628.4c-.9-3.2-2.8-5.8-7.3-8.9-21.1-14.9-44.8-23.5-70.2-27.4-3-.5-6.1-.4-9.4-.6 1.6 7.8 5.4 13.3 11.8 17.1 5.9 3.5 12.4 5 19.1 5.6 14.2 1.2 28 4.5 41.4 9.3 4.7 1.6 9.5 3.2 14.6 4.9" fill="#fff"/><path d="M740.6 819.4c.4-1 .6-1.3.6-1.6 2.8-16.2 5.6-32.5 8.3-48.8 1.3-7.7 2.3-15.4 3.4-23.1.4-3.1-.4-6.4-3-7.8-1.8-1-4.9-.2-7.2.5-1.7.5-3.3 2.1-4.3 3.7-5.5 8.4-8.5 17.6-8.2 27.8.3 11.3 3 22.1 5.7 33 1.4 5.2 3 10.4 4.7 16.3" fill="#fff"/><path d="M379.2 774.5c.4 0 .8-.1 1.2-.1 3.1-5.5 4-11.5 4.2-17.7.4-16.2-2.8-31.7-8.6-46.7-2.9-7.4-6.3-14.5-12-20.2-1.7-1.7-3.8-2.8-6.1-4.5-.4 1.5-.7 2.3-.8 3.1-1.9 8.7-1.3 17.3 2.1 25.4 2.9 6.9 6.8 13.4 10.4 19.9 6 10.7 9.9 21.8 9 34.3-.2 2.1.4 4.3.6 6.5" fill="#fff"/><path d="M642.3 527.7c1.2 3 2.3 5.4 3.1 7.9 1.7 5.3 4.1 10.5 4.8 16 1.8 14.4 2.8 29 4.3 43.4.9 8.4 3.6 15.9 10.9 21 3.6 2.6 8.5 4.1 11.4 3.7-7.1-7.8-10.6-17.1-11.5-27.4-.6-6.3-.8-12.6-.9-18.9-.2-9.7-1.4-19.2-4.1-28.5-2.6-8.9-8.3-14.6-18-17.2" fill="#fff"/><path d="M575.5 790.5c-2.3-2.1-3.9-2.2-6-1.1-10 5.2-18.2 12.6-25.1 21.4-8.6 11-15.1 22.9-17 37-.4 2.8-.1 5.6-.1 9.1.9-.8 1.2-1 1.3-1.2 11.1-13.6 22.6-27 33.1-41.1 5.6-7.4 9.4-16.1 13.8-24.1" fill="#fff"/><path d="M320.5 575.3c.6-.8.9-1.2 1.2-1.5 9.8-14.3 19.5-28.6 29.3-42.8 3.1-4.5 5.3-9.4 5.7-15 .4-4.8-.3-9.4-3.9-13.5-.5.7-.9 1.2-1.3 1.7-4 6.1-8.2 12.1-12.1 18.4-5.5 8.9-11.3 17.8-16.2 27.1-4 7.8-5 16.3-2.7 25.6" fill="#fff"/><path d="M414.9 456.4c-6.2.9-12.7 1.5-19 2.8-6.4 1.4-8.4 5.6-6.5 11.8.5 1.6 1.3 3 1.9 4.6.6 1.7 1.8 2 3.4 1.8 3.5-.6 7.1-.9 10.6-1.5 8.6-1.6 17.2-1.9 25.8.6 1 .3 2 .5 3 .5.5 0 1.3-.1 1.6-.5 4.7-6.1 5.6-14.9-4.2-17.7-5.3-1.4-10.9-1.6-16.6-2.4" fill="#fff"/><path d="M424.2 794.1c-.6-1.4-1-2.3-1.4-3.2-5.8-12.8-11.8-25.4-15.5-39-2.6-9.7-9.8-16.5-16-24-8.4 20.6 7.9 54.2 32.9 66.2" fill="#fff"/><path d="M367.6 530.5h.9l5.1-11.1c5-10.8 10.1-21.6 14.9-32.4 2.3-5.1 1.2-8.5-2.9-10.9-5.1-3-9.3-2.4-12.7 1.7-.9 1.1-1.6 2.2-2.3 3.4-5.3 9.3-7 19.4-6.1 29.9.6 6.5 2 13 3.1 19.4" fill="#fff"/><path d="M562.1 509.2c4.9-21.2 18.1-29.8 40-26.1-1.1-.9-1.4-1.3-1.9-1.6-4.6-3.4-9.9-5.2-15.4-6.3-13.9-2.7-27.7-1.6-41.5.9-1.9.3-3.8.8-6.5 1.3 4.4 3.1 8.1 5.8 11.9 8.4 8.1 5.7 13.8 12.7 13.4 23.4" fill="#fff"/><path d="M460.9 714.2c-3.6 7.5-7.2 14.9-11 22.7 10.8 4.1 16-3.5 21.9-9.8 2.3 8.3 4.5 16.2 6.8 24.6 3.8-4.2 4.8-8.9 4.5-13.8-.7-10.5-5.3-19.7-10.2-28.7-.9-1.7-3.6-3.3-5.5-3.4-4-.2-8.1.5-12.9 1 2.7 3 4.6 5.3 6.4 7.4" fill="#fff"/><path d="M573.9 838.3c10.3-22.1 20.4-43.9 30.7-66.1-25 8.8-40.1 43-30.7 66.1" fill="#fff"/><path d="M559.6 825.5c-4 3.7-7.6 6.8-11 10.3-4 4-6.5 8.9-7.4 14.4-.4 2.4-.5 4.9-.8 7.4-1.1 8.7-5 16.4-8.6 24.2-1.8 3.9-3.7 7.9-5.5 11.8 1.1-.1 1.7-.4 2.2-.8 17-14.6 27.4-33.1 31.8-55 .7-4 .8-7.9-.7-12.3" fill="#fff"/><path d="M577.7 640.8c-10.4-2.9-21.2-.2-29.9 7.2-11.9 10.1-18.2 23.2-20.5 38.4-.5 3.1-.4 6.2-.7 9.5 3.1-5.7 5.7-11.2 9.1-16.3 6.6-10 15.9-17.4 25.1-24.9 5.5-4.4 10.9-9 16.9-13.9" fill="#fff"/><path d="M463.4 588.3c-3 6.6-5.7 12.5-8.4 18.4-2.6 5.8-5.3 11.5-7.5 17.4-2.9 7.7 2.3 14 10.5 12.9 4.3-.6 6.9-3.5 8-7.4 1.1-4.1 2-8.4 2.5-12.6 1.1-9.8-.7-19.1-5.1-28.7" fill="#fff"/><path d="m424.3 824.9.7.7c2.7-1.9 5.6-3.5 7.9-5.7 11-10.3 13.4-32.4 5.4-45.1-3-4.7-7.5-6.8-12.4-8.4-1.1-.4-2.2-1.7-3.6-.1-1.5 1.6-.6 2.8 0 4.2 1.6 3.8 3.3 7.5 4.7 11.4 2.9 8.2 5.1 16.6 3.9 25.5-1 6.3-3.3 12.1-6.6 17.5" fill="#fff"/><path d="M618.9 465.2c3.6 4.6 7.4 9.1 10.9 13.8 2.3 3.2 4.1 6.7 6.2 10 3.3 5.1 7 9.9 12.3 13.1 4.1 2.5 8.5 3.9 13.7 4.1-.4-.7-.5-1-.7-1.2-5.2-7.3-10.2-14.8-15.8-21.8-4.2-5.2-9-9.9-14-14.3-3.6-3-8.3-4-12.6-3.7" fill="#fff"/><path d="M712.6 495.5q4.95 7.5 12.9 9.6c10.6 2.8 21.1 1.8 31.3-2 3.5-1.3 6.4-3.8 8-7.7-17.4.1-34.6.1-52.2.1" fill="#fff"/><path d="M635.9 600c-2.4-11.4-20.7-28.5-30.5-28.7-3.5 13.1 11.2 30.3 30.5 28.7" fill="#fff"/><path d="M582.1 757.4c-1.2.3-1.8.3-2.2.5-14 5.3-23.2 15-26.8 29.7-.6 2.5-.3 5.3-.5 8.6 16.1-8.7 21.6-24.2 29.5-38.8" fill="#fff"/><path d="M648.1 669.8c.6-.9.9-1.3 1.1-1.7.5-1 .9-2 1.3-3 3.1-9.5 2.8-19.1.9-28.8-1.7-9-6.8-14.4-16-15.6-.8-.1-2 .5-2.5 1.1-.4.5-.2 2 .3 2.4 7.3 6.8 10.7 15.5 12.3 25 .9 6.7 1.7 13.3 2.6 20.6" fill="#fff"/><path d="M411.6 660.5c9.4 2.4 25.2-4.8 33.6-15.2-8.2.5-16.3.8-23.9 3.8-5.2 1.9-8.7 5.5-9.7 11.4" fill="#fff"/><path d="M480.7 709.2c-.9 5.5 1.6 10.9 6.7 13.4 4.8 2.4 9.8 4.2 15.1 6.4-4.4-10-9.8-18.4-21.8-19.8" fill="#fff"/><path d="M760.7 506.3c-2.6 2.8-4.9 5.4-7.4 8.1 1.1 1.3 2.4 2.7 3.7 4.1 1.2 1.4 2.6 1.7 4.1.4 2.2-1.9 4.3-3.8 6.2-5.5-2.3-2.5-4.3-4.6-6.6-7.1" fill="#fff"/><path d="M735.4 551.3c3.7 1.6 7.3 3.1 11.4 4.8.6-2.7 1.1-5.3 1.7-7.8 1.4-5.5 2.9-11 4.2-16.5.8-3.6 3.2-5.6 6.4-7 2.7-1.2 5.4-2.4 8.3-3.6 1.9 3.5 2.2 7.2 1.6 11.1-1.5 10-6.5 18.2-13.5 25.3l-1.2 1.2c-.1.1-.1.2-.1.5 3.9 1.9 7.8 3.7 11.7 5.7 12.8 6.4 24.4 14.2 33 25.9 7.4 10.1 11.2 21.5 12.5 34.1-2.8-.1-4.9-.6-6.4-3.3-6.4-11.4-16.3-19.3-27.4-25.6-11.3-6.5-22.9-12.5-34.1-19.1-10.6-6.3-19.8-14.3-26.3-24.9-1.1-1.8-1.9-3.9-3.1-6.3 4.2.7 7.9 1.3 11.9 1.9-3.3-6.9-7.5-12.4-14.8-14.7-.5 1.5-1.1 3.1-1.7 4.7-.3 0-.7-.1-1-.1-2.7-4.5-5.5-9-8.2-13.6-11.4-18.7-27-33.2-44.9-45.4-17-11.6-35.4-20.8-53.7-30.2-9-4.6-18-9.1-27-13.7-.9-.4-1.9-1-2.3-1.8-5.8-9.8-15.2-13.5-25.7-15.6-6.5-1.3-13.2-2.4-19.5-4.4-4.4-1.4-8.4-4.3-12.6-6.5.1-.3.1-.6.2-.9 2.8-.3 5.6-.7 8.5-1 9.6-1 19.3-1.5 28.5 2.1 4.5 1.8 9.1 4.2 12.7 7.4 19.3 17.1 41.4 28.1 66.6 33.4 5.3 1.1 10.3 3.1 15.5 4.7 1.4.5 2.9.9 4.9 1.6-.9-2.3-1.5-4-2.3-6.1 1.8-.6 3.5-1.2 5.3-1.7 16.7-4.9 33.6-8.4 51.1-8 26.6.7 48.7 11.3 66.9 30.9-1.3 1.3-2.5 2.6-4 4.2 6.7 2.6 13.1 5.1 19.9 7.7-3.1 4.3-7.4 5.4-11.9 5.4-5-.1-9.5-1.8-13.5-4.8-4.1-3.1-4.5-6-1.3-10 .4-.6.9-1.1 1.5-1.9-5.6-1.7-10.9-3.4-16.2-4.9-12.3-3.5-24.5-7-36.8-10.2-7.9-2.1-14.9 0-20 6.3-3.1 3.8-5.6 8.2-11.4 9.8 5.1 3.3 9.4 6.1 14.5 9.4-1-1.9-1.6-3.2-2.2-4.4.1-.3.2-.5.2-.8 16.2 6.7 33 9.2 50.4 7.2-3.2 4.7-7.6 7.5-12.8 8.8-8 2-15.7.5-23-3-3.9-1.9-7.5-4.2-11.6-6.5 1.3 2.6 2.4 5 3.6 7.3 3.4 6.6 6.7 13.3 10.2 19.8.6 1.1 1.7 2.3 2.8 2.8 9.1 4 15.6 10.8 21.4 18.5 4.7 6.2 9.7 12.2 14.5 18.3.4.5.7 1 1.2 1.9-4.2.3-8.2.7-12.1 1-.4.2-.4.4-.5.6" fill="#000"/><path d="M348 815.1c-2.1-3.9-4.6-7.7-6.2-11.7-6.1-14.7-11.4-29.6-13.5-45.4-1.5-10.8-1.3-21.6 2-32.1 4.5-14.2 5.5-28.9 6.5-43.7.9-13.5 2-27.1 6.2-40.1.4-1.2.8-2.4 1.3-3.8 4.1 1.7 6.7 4.6 8 8.5 2.4 7.2 2.7 14.6 1.9 22-1.9 18.6-1 37 1.7 55.3.3 2.2.5 4.3.8 7.2-1.7-1.4-2.9-2.4-4.1-3.5-3.9-3.4-7.9-6.9-11.8-10.4-1.1-1-2-1.6-3.6.4 6.3 11.7 12.2 24.1 19.4 35.6 8.5 13.4 13.3 27.6 14.6 43.5 1.8 22.3 8.2 43.2 22.3 61.1 1.6 2 4.1 3.7 3.1 7.1-4.4-1.6-8.1-4.2-11.5-7.3-12.6-11.3-21.1-24.9-24.7-41.6-2.9-13.3-6.5-26.5-10-39.7-1-3.9-3-7.5-5.1-11.2-2.4 5.2-3 10.5-2.2 15.8 1.4 8.9 3.3 17.6 4.9 26.4.4 2.4.5 4.8.8 7.2-.3.2-.6.3-.8.4" fill="#000"/><path d="M753.3 799.7c.4-1.4.6-2.8 1.1-4.2 4.3-10.1 4.2-20.7 3.6-31.4-1-17.1-2.1-34.2-3.2-51.3-.5-7.7-1.3-15.3-2-23-.1-.8-.8-1.9-1.5-2.2-5.8-2.3-9.2-6.7-11.7-12.1-8.7-18.5-14.9-35.8-20.8-58.1.9-.7 1.9-1.4 2.7-2 9.5 8 15 18.4 19.2 29.6 3.3 8.9 7 17.7 10.5 26.6.2.5.5 1 .8 1.6 1.9-.3 3.6-.7 5.6-1 1.9 5.5 3.9 10.8 5.6 16.2 4 12.3 8.1 24.5 11.8 36.9 5.8 19.1 2.4 37.2-6.9 54.4-3.1 5.8-6.6 11.4-10.1 17-.9 1.5-2.5 2.5-3.8 3.8-.4-.4-.7-.6-.9-.8" fill="#000"/><path d="m554.2 985.9-2.7-.6c.1-8.8 1.9-17.5 1.7-26.2-.4-.1-.8-.1-1.2-.2-3.8 12.3-7.5 24.5-11.3 36.8-11-10.4-2.6-46.9 12.3-52.8.2 3.3.5 6.5.7 9.8.2 0 .3.1.5.1.9-2.3 1.8-4.7 2.7-7 7.3-17.6 18.8-32.3 31.9-45.8 10.7-11.1 21.7-21.8 32.6-32.7.3-.3.7-.6 1.3-1.1 2.2 6.6 1.9 12.9-.7 18.9-3.7 8.5-9.3 15.8-15.2 22.8-8.7 10.4-18 20.3-26.6 30.8-11.2 13.6-20.3 28.5-25.2 45.7-.2.6-.5.9-.8 1.5" fill="#000"/><path d="M728 843.3c-1.4-.9-2.1-1.3-3.1-1.8.7 20.1-9.7 33.9-24.9 44.7-12.5 8.9-25.3 17.6-37.9 26.3-1.6 1.1-1.7 1.1-3.5-.7 2.7-4 5.3-8 8-12 10.3-14.9 20.8-29.8 31.1-44.7 6.9-9.9 12-20.6 13-32.8.1-1.5 0-3.1-.3-4.6-1.8-6.9-2.6-13.8-1.6-20.9 1-6.7 3.8-12 11-14.9.9 2.8 2.5 5.7 2.5 8.7-.1 14 3 27.6 4.5 41.5.3 3.4.7 6.9 1.2 11.2" fill="#000"/><path d="M714.1 705.2c-2.8-5.5-5.2-10.2-7.7-15.1-1.7.6-3.3 1.1-4.9 1.7-3.4 1.2-3.9 1-4.9-2.6-1.7-6.1-3.4-12.2-5.1-18.2-2.1-7.3-4.3-14.6-6.2-22-2.4-9.4-1.7-18.7 3-28 1.8 3.9 3.4 7.5 5.1 11 3-.8 3.2-2.4 2.4-5.1-3.8-12.4-7.4-24.9-11.3-38.1 1.9.9 3.2 1.4 4.5 2.2 8.5 5.1 13.9 12.9 18.1 21.6 7.1 14.8 10.3 30.6 11.6 46.9 1.1 13.2.4 26.4-2.7 39.3-.5 1.9-1.1 3.8-1.9 6.4" fill="#000"/><path d="M323 633.4c-2.2 7.3-4.4 14.5-6.8 22.5-1.6-1.8-3.1-3.1-4.1-4.7-3.9-6.2-4.6-13.2-.9-19.3 4.8-8 10.7-15.3 16.1-22.9 1.2-1.7 2.6-3.3 3.8-5.2-6.5 2.5-12.3 6.6-20 7.4 1.4-1.3 2.4-2.1 3.4-3 7.2-6.5 11.2-14.9 14-23.9 2.3-7.6 4.3-15.4 6.7-22.9 2.7-8.4 7.7-15 15.9-18.6.8-.4 1.6-.6 2.9-1.1-1.9 21-8.2 40.1-18.9 58 3.1 0 5.6-4 8.9-.8-1.5 5.4-3.2 10.8-4.4 16.3-.6 2.6-.9 5.4-.4 8 .8 4.7.8 9.1 0 13.9-1.4 8.1-1.8 16.4-3 24.5-1.2 8.4-4.1 16.1-10.4 22.3-1.6 1.5-3 2.3-5.2.7.6-5.6 1.2-11.4 1.9-17.2 1.1-10.3 2.2-20.6 3.4-30.9.1-2.3-.7-3.1-2.9-3.1" fill="#000"/><path d="M414.1 693c8.7-4.3 17.1-8.6 25.6-12.5q9-4.2 18.3-7.5c4.9-1.7 10-2.4 15.2-1.5 6.3 1.1 11.4-1.1 15.6-5.6 2.3-2.4 4.3-5 6.6-7.4 3.5-3.8 7.5-6.7 12.9-7.2.6-.1 1.3-.1 1.9-.1.3 0 .5.2 1 .3-5.2 15.3-12.4 30.2-8.7 47.3-.3.1-.6.1-.9.2-1.1-.6-2.2-1.1-3.3-1.7-4.7-2.3-7.6-1.7-10.7 2.4-1 1.4-2 1.8-3.6 1.8-11.6-.2-23.3-.3-34.9-.3-6.7 0-13.4.4-20.1.3-6.3-.1-11.6-2.1-14.9-8.5" fill="#000"/><path d="M746.4 617.9c.3-2.5.4-5.1.8-7.6.4-2 2-2.4 3.3-.8 11.5 14.4 23.3 28.5 34.3 43.3 7.9 10.6 9.8 23.3 9 36.3-.8 12.4-3.9 24.2-8.4 35.7-.3.7-1.3 1.1-2 1.6-.4-.7-1.2-1.3-1.2-2 .1-14.1-4.5-27-10.7-39.4-5.4-10.9-11.3-21.6-16.5-32.6-5-10.9-8.1-22.4-8.6-34.5" fill="#000"/><path d="M656.5 791.7c4.8-7.3 9.8-14.1 14-21.4 8.8-15.2 11.9-31.4 7.4-48.7-.2-.9-.5-1.8-.7-2.7 0-.2-.2-.3-.6-.7-13.1 9.4-26.2 18.9-39.4 28.5-.8-1.1-1.5-2-2.4-3.2.7-.7 1.3-1.4 2-1.8 10.2-6.5 16.4-16.2 22-26.6 7.5-13.9 15.6-27.6 23.4-41.4.3-.5.6-.9 1.3-1.9 2.1 5.1 4.2 9.6 5.8 14.3 8.3 24.5 8.9 48.9-1 73.1-5.8 14-14.9 25.2-29.2 31.4-.8.4-1.7.7-2.6 1.1" fill="#000"/><path d="M449 580.3c13.5-8.1 27.8-10.7 43.6-6.3-2.2 3.1-4.1 6.1-6.2 8.9-2.6 3.6-5.3 7.3-8 10.8-.5.7-1.7 1.5-2.4 1.4-3.7-.8-7.1-2.1-8.5-6.1-.9-2.7-1.8-5.3-3-8.6-4.1 5.8-8.9 10.3-10.9 17.1-1.5 5.3-4.1 10.4-7 15.1-3.7 6-9.6 9.3-16.7 9.9-4.3.4-8.8-.1-13.2-.4-.8 0-2-.9-2.2-1.5-2.3-10.7-2.6-21.3 2.6-31.4 2.9-5.6 7.4-9.5 13.3-11.7 1.3-.5 2.6-1 3.8-1.6 7.6-3 10.3-2.3 14.8 4.4" fill="#000"/><path d="M494.3 932.9c-.4-4.1-.7-8.2-1.1-12.3l.9-.6c2.8 1.2 5.8 2.1 8.4 3.7 17.1 10.6 27.4 25.9 30.6 45.7 1 5.8.5 11.7-2 17.2-.3.6-.5 1.2-.8 1.7-.1.2-.4.3-.8.6-5.2-9.2-10.3-18.2-15.5-27.3-3.3-5.7-6.6-11.5-9.7-17.2-.9-1.6-1.9-2.5-3.7-1.7-4.4 1.8-7.9.2-11.6-2.4-11-7.7-21.5-16-28.8-27.5-4.6-7.3-7.5-15.3-9-23.8-.2-1-.2-1.9-.3-3.2 8.6 2.1 15.7 6.3 20.8 12.9 4.6 5.9 8.3 12.5 12.4 18.8 3.3 5.2 6.5 10.5 9.8 15.8.1-.2.2-.3.4-.4" fill="#000"/><path d="M415.2 583.1c-1-13.4-5.1-24.8-11.3-35.4-4.2-7.2-8.8-14.2-13.2-21.2-2.9-4.6-5-9.3-4.9-14.9.1-4.7 1.9-8.7 4.3-12.6.9-1.4 1.8-1.1 3-.6 11.5 5.1 20 13.4 25.4 24.8 6.4 13.5 10.5 27.7 14.7 42 1 3.5-.2 6.5-3 8.5-4.6 3.1-9.5 6-15 9.4" fill="#000"/><path d="M670.3 865.3c.9 10.9-1 20.8-6.2 30-4.8 8.4-11.5 15.1-19.5 20.2-21.4 13.7-41.3 29.5-61.4 45.1-.3.2-.6.4-1 .7 5-12.7 11.3-24.1 21.3-33.4 22-20.5 43.8-41.2 65.6-61.9.2-.2.4-.3 1.2-.7" fill="#000"/><path d="M518.9 545.2c3 1.8 6.1 3.6 9 5.5 8.3 5.6 17.2 6.7 26.8 4.1 5-1.4 10.1-2.5 16-3.9-24.1 32.1-47.8 63.6-71.4 95.2-.3-.1-.5-.2-.8-.2.5-3.4.8-6.7 1.6-10 2.3-10.1 6.9-19.3 12.1-28.2 4-6.9 8.1-13.7 12.4-20.4 6.7-10.4 6-20.5-.6-30.6-2.2-3.5-4-7.2-6-10.8.4-.3.6-.5.9-.7" fill="#000"/><path d="M661.6 741.9c-1.7 10.5-2.9 20.9-7.5 30.5l-27.3 56.7c-.2.4-.5.7-1 1.5-1.3-7.7-1.1-14.7.8-21.7 2.6-9.3 5.7-18.4 8.1-27.7 1.4-5.3 2-10.7 3.1-16.8-18.8 6.4-26.1 22.1-34.1 37.2-.2-.1-.5-.1-.7-.2.2-2.9.3-5.8.8-8.7 2.6-15.6 11.4-27.1 23.7-36.4 9.5-7.1 20.1-11.6 31.6-14.2.7 0 1.4-.1 2.5-.2" fill="#000"/><path d="M448 794.2c4.2 1.3 7.2 3.9 9.6 6.9 5.9 7.4 11.9 14.7 17.1 22.5 10.9 16.3 20.5 33.5 27.4 51.9 1.5 4.1 2.4 8.4 3.6 12.7-.3.1-.7.3-1 .4-1.5-1.6-2.9-3.2-4.4-4.7-13.3-14.7-26.6-29.3-39.8-44.1-10.9-12.1-15.2-26.3-13.1-42.4 0-1 .3-2 .6-3.2" fill="#000"/><path d="M727.7 606.4c-9.1-.6-16.7-4.3-23.3-10.5-5.7-5.4-9.8-11.9-13.4-18.7-11.2-20.8-22.3-41.7-33.4-62.6-.1-.2-.2-.5-.4-1.3 4.1 1.9 7.9 3.6 11.7 5.3 10.9 4.7 19.4 11.9 24.1 23.2 4.6 11 9.6 21.8 14.1 32.8 4.8 12 9.8 23.7 20.6 31.8" fill="#000"/><path d="M377.7 521.1c2.9-1.3 4.9-.6 6.9 2.1 12 16.6 18.6 35.2 21.6 55.3 2.2 14.4 2.7 28.8 2.5 43.3 0 .8-.1 1.6-.1 2.4-7.2 1-13.5-3.1-15-10.5-1.4-6.9-2-14-2.5-21-.6-8.6-.5-17.2-1.4-25.7-1-10-4.1-19.6-8.9-28.4-3.1-5.6-3.5-11.4-3.1-17.5" fill="#000"/><path d="M369.9 613.5c1.3-2.9 3.2-3.4 5.6-1.9 7.5 4.7 15.4 9 22.4 14.2 5.8 4.3 11.6 6.4 18.6 4.7 7.6-1.9 15.3-3.8 22.9-5.9 1.6-.4 2.6-.4 3.2 1.3.8 2.2 1.9 4.4 2.6 6.7 1 3.2 0 5.5-3.3 6.5-4.2 1.3-8.5 2.1-12.8 2.9-5.4 1-10.9 1.6-16.3 2.6-1.1.2-2.4 1.3-2.9 2.3-3.8 8.4-7.9 9.4-13.9 2.4-6.7-7.9-12.7-16.6-18.9-25-2.5-3.6-4.8-7.2-7.2-10.8" fill="#000"/><path d="M397.9 837.2c7.6 3.6 13.7 8.4 18.9 14.3 8.6 9.7 13.9 21.3 19 32.9 4.9 11 9.5 22 16.4 32-7.1-1.4-26.9-19.8-35.8-33.3-9.2-13.9-15-29.2-18.5-45.9" fill="#000"/><path d="M668.9 628.4c-5-1.7-9.9-3.3-14.6-5-13.4-4.8-27.2-8-41.4-9.3-6.7-.6-13.2-2.1-19.1-5.6-6.3-3.8-10.2-9.2-11.8-17.1 3.3.2 6.4.1 9.4.6 25.4 3.9 49.1 12.6 70.2 27.4 4.4 3.2 6.3 5.8 7.3 9" fill="#000"/><path d="M740.6 819.4c-1.7-5.9-3.3-11.1-4.6-16.4-2.7-10.8-5.4-21.7-5.7-33-.3-10.2 2.6-19.4 8.2-27.8 1-1.5 2.6-3.1 4.3-3.7 2.3-.8 5.4-1.5 7.2-.5 2.6 1.4 3.4 4.7 3 7.8-1.1 7.7-2.1 15.4-3.4 23.1-2.7 16.3-5.5 32.5-8.3 48.8-.2.4-.4.7-.7 1.7" fill="#000"/><path d="M379.2 774.5c-.2-2.2-.8-4.3-.7-6.5.9-12.5-3-23.6-9-34.3-3.7-6.5-7.5-13-10.4-19.9-3.5-8.1-4-16.7-2.1-25.4.2-.8.4-1.6.8-3.1 2.2 1.6 4.4 2.8 6.1 4.5 5.8 5.6 9.2 12.8 12 20.2 5.8 15 9.1 30.6 8.6 46.7-.2 6.1-1 12.2-4.2 17.7-.3 0-.7 0-1.1.1" fill="#000"/><path d="M642.3 527.7c9.6 2.6 15.4 8.3 17.9 17.2 2.7 9.3 3.9 18.8 4.1 28.5.1 6.3.3 12.6.9 18.9 1 10.3 4.5 19.6 11.5 27.4-2.9.5-7.8-1.1-11.4-3.7-7.2-5.1-10-12.6-10.9-21-1.5-14.5-2.5-29-4.3-43.4-.7-5.4-3.1-10.7-4.8-16-.7-2.5-1.8-4.9-3-7.9" fill="#000"/><path d="M575.5 790.5c-4.4 8-8.2 16.7-13.7 24.1-10.5 14.1-22 27.4-33.1 41.1-.2.2-.4.4-1.3 1.2 0-3.4-.3-6.3.1-9.1 1.8-14.1 8.4-26 17-37 6.9-8.8 15-16.2 25.1-21.4 2-1.1 3.6-1 5.9 1.1" fill="#000"/><path d="M320.5 575.3c-2.2-9.3-1.3-17.8 2.8-25.6 4.9-9.3 10.6-18.2 16.2-27.1 3.9-6.2 8-12.3 12.1-18.4.3-.5.7-1 1.3-1.7 3.6 4 4.3 8.6 3.9 13.5-.4 5.5-2.6 10.4-5.7 15-9.8 14.3-19.5 28.5-29.3 42.8-.4.3-.7.7-1.3 1.5" fill="#000"/><path d="M414.9 456.4c5.8.8 11.3 1 16.6 2.4 9.8 2.7 8.9 11.6 4.2 17.7-.3.4-1.1.5-1.6.5-1-.1-2-.2-3-.5-8.5-2.5-17.1-2.2-25.8-.6-3.5.7-7.1 1-10.6 1.5-1.7.3-2.8-.1-3.4-1.8-.6-1.5-1.4-3-1.9-4.6-1.9-6.2.1-10.4 6.5-11.8 6.2-1.3 12.7-1.9 19-2.8" fill="#000"/><path d="M424.2 794.1c-24.9-12-41.3-45.6-32.9-66.3 6.2 7.6 13.4 14.3 16 24 3.7 13.6 9.7 26.3 15.5 39 .4 1 .8 1.9 1.4 3.3" fill="#000"/><path d="M367.6 530.5c-1-6.5-2.4-12.9-3-19.4-.9-10.5.8-20.6 6.1-29.9.7-1.2 1.4-2.3 2.3-3.4 3.4-4.2 7.7-4.7 12.7-1.7 4.1 2.4 5.2 5.8 2.9 10.9-4.9 10.8-9.9 21.6-14.9 32.4l-5.1 11.1z" fill="#000"/><path d="M562.1 509.2c.4-10.7-5.3-17.8-13.3-23.4-3.7-2.6-7.4-5.3-11.9-8.4 2.7-.5 4.6-1 6.5-1.3 13.8-2.5 27.6-3.7 41.5-.9 5.5 1.1 10.8 2.9 15.4 6.3.4.3.8.7 1.9 1.6-22-3.6-35.3 4.9-40.1 26.1" fill="#000"/><path d="M460.9 714.2c-1.8-2.2-3.7-4.4-6.3-7.5 4.8-.4 8.9-1.2 12.9-1 2 .1 4.6 1.7 5.5 3.4 4.9 9 9.5 18.2 10.2 28.7.3 4.9-.8 9.6-4.5 13.8-2.3-8.4-4.5-16.3-6.8-24.6-5.9 6.3-11.2 13.9-21.9 9.8 3.7-7.7 7.3-15.1 10.9-22.6" fill="#000"/><path d="M573.9 838.3c-9.4-23.1 5.6-57.2 30.7-66.1-10.3 22.2-20.4 44-30.7 66.1" fill="#000"/><path d="M559.6 825.5c1.5 4.5 1.4 8.4.6 12.2-4.4 21.9-14.8 40.4-31.8 55-.5.5-1.2.8-2.2.8 1.8-3.9 3.7-7.9 5.5-11.8 3.6-7.8 7.5-15.5 8.6-24.2.3-2.4.4-4.9.8-7.4 1-5.6 3.5-10.4 7.4-14.4 3.4-3.4 7.1-6.6 11.1-10.2" fill="#000"/><path d="M577.7 640.8c-6 4.9-11.4 9.5-16.9 14-9.2 7.5-18.5 14.9-25.1 24.9-3.4 5-5.9 10.6-9.1 16.3.2-3.3.2-6.4.7-9.5 2.3-15.2 8.7-28.3 20.5-38.4 8.7-7.5 19.5-10.2 29.9-7.3" fill="#000"/><path d="M463.4 588.3c4.3 9.5 6.1 18.9 5.1 28.6-.5 4.3-1.3 8.5-2.5 12.6-1.1 4-3.7 6.8-8 7.4-8.2 1.2-13.4-5.1-10.5-12.9 2.2-5.9 4.9-11.6 7.5-17.4 2.7-5.8 5.4-11.7 8.4-18.3" fill="#000"/><path d="M424.3 824.9c3.3-5.5 5.6-11.2 6.5-17.6 1.2-8.9-1-17.3-3.9-25.5-1.4-3.9-3.1-7.6-4.7-11.4-.6-1.4-1.4-2.6 0-4.2 1.5-1.6 2.5-.2 3.6.1 4.9 1.7 9.5 3.8 12.4 8.4 8.1 12.7 5.6 34.8-5.4 45.1-2.3 2.2-5.3 3.8-7.9 5.7-.1-.1-.4-.3-.6-.6" fill="#000"/><path d="M618.9 465.2c4.4-.3 9.1.6 12.6 3.8 5 4.4 9.8 9.1 14 14.3 5.6 7 10.6 14.5 15.8 21.8.2.3.3.6.7 1.2-5.2-.2-9.6-1.6-13.7-4.1-5.3-3.3-9-8-12.3-13.1-2.1-3.3-3.9-6.9-6.2-10-3.5-4.8-7.3-9.3-10.9-13.9" fill="#000"/><path d="M712.6 495.5h52.2c-1.6 3.9-4.5 6.3-8 7.7-10.2 3.8-20.7 4.8-31.3 2-5.3-1.5-9.6-4.6-12.9-9.7" fill="#000"/><path d="M635.9 600c-19.2 1.6-33.9-15.6-30.5-28.7 9.8.3 28 17.3 30.5 28.7" fill="#000"/><path d="M582.1 757.4c-7.9 14.6-13.4 30.1-29.6 38.8.2-3.4-.1-6.1.5-8.6 3.6-14.6 12.8-24.4 26.8-29.7.5-.2 1.1-.3 2.3-.5" fill="#000"/><path d="M648.1 669.8c-1-7.3-1.7-13.9-2.8-20.5-1.6-9.5-5-18.2-12.3-25-.5-.4-.6-1.9-.3-2.4.5-.7 1.7-1.2 2.5-1.1 9.2 1.1 14.3 6.6 16 15.6 1.9 9.7 2.2 19.3-.9 28.8-.3 1-.8 2-1.3 3 0 .4-.3.7-.9 1.6" fill="#000"/><path d="M411.6 660.5c1-5.9 4.5-9.4 9.7-11.5 7.6-3 15.7-3.3 23.9-3.8-8.5 10.5-24.3 17.7-33.6 15.3" fill="#000"/><path d="M480.7 709.2c12 1.4 17.4 9.8 21.8 19.9-5.3-2.2-10.3-4.1-15.1-6.4-5.1-2.6-7.6-8-6.7-13.5" fill="#000"/><path d="M760.7 506.3c2.3 2.5 4.3 4.6 6.6 7.1-1.9 1.7-4 3.6-6.2 5.5-1.5 1.3-2.8.9-4.1-.4-1.3-1.4-2.6-2.8-3.7-4.1 2.5-2.7 4.8-5.3 7.4-8.1" fill="#000"/><path d="m148.769 432.681 10.234-3.623 2.8-.638 10.929 5.663q-3.025 5.84-1.86 8.722 1.242 2.733 5.884 5.138l2.245 1.163q.544-1.047-.266-2.417l4.867-2.795 12.862-2.832q6.571 4.545 7.992 10.599t-1.682 12.043q-3.026 5.839-10.016 9.434 1.094 7.784-2.086 13.922-3.104 5.99-14.324 10.05-11.221 4.062-20.52.383l-.523-5.589q1.659.1 2.822-2.146 3.336-6.438-7.893-12.256l-.931 1.796-12.862 2.831-10.93-5.663q3.181-6.138 4.949-8.451l-28.446-14.74-2.173 4.192-12.862 2.831-21.11-10.939 41.66-80.399 12.862-2.831 36.532 18.929-8.999 17.368-12.863 2.831-6.438-3.336-8.301 16.02 8.684 4.5 8.983 4.655zm-9.473 29.277q-.122-1.963-1.731-5.455l2.017-3.893q3.703-.549 5.455-1.731-1.32-2.583-1.277-5.6l-7.785-4.034-8.983-4.655-26.051-13.498 16.679-32.19 15.422 7.991 4.654-8.984-28.147-14.585-37.316 72.015 12.726 6.595 6.207-11.978 42.819 22.188q2.134-1.553 5.311-2.186m35.742 10.924q7.434-2.985 10.77-9.423 3.414-6.588-2.52-13.461.056 1.358-.643 2.706-5.43 10.48-20.852 2.489-12.576-6.516-7.456-16.398l-3.743-1.939q-1.473 2.844-1.95 4.497-.626 1.575-.143 4.674t2.846 6.602q-2.61 3.206-8.731 4.022 2.414 5.24 1.749 9.453-4.302.24-7.113 1.632-2.81 1.393-3.736 2.812-1.076 1.342-2.472 4.037l3.743 1.939q5.121-9.881 17.697-3.364 11.379 5.895 11.741 12.161.033 2.866-1.751 6.31l-1.84 2.085q9.038.885 12.374-5.553 3.413-6.588 1.565-14.383z" fill="#000"/><path fill-rule="evenodd" clip-rule="evenodd" d="m173.541 290.859.016.017 13.582 2.463 10.455 11.293-1.652-34.512 26.722-24.741.037.039 13.131 1.977 16.572 17.899-7.424 6.874 20.338 21.966 1.462-1.353.03.033 13.567 2.445 9.268 10.01-3.459 3.203c-1.937 1.793-2.322 3.216-2.224 4.429.121 1.488 1.063 3.759 3.938 6.865q.4.432.789.833l5.234-8.008.013.036 13.585 2.444 3.303 8.606c1.282 3.341 1.872 6.722 1.367 9.997-.518 3.36-2.136 6.243-4.632 8.554-3.744 3.466-8.215 5.541-13.251 6.286-1.113 4.935-3.477 9.202-7.167 12.617-2.517 2.331-5.53 3.759-8.941 4.045-3.333.28-6.681-.559-9.929-2.102l-1.522-.723c-.697.165-1.412.284-2.147.345-3.332.28-6.68-.559-9.929-2.102l-10.202-4.845a25 25 0 0 0 1.977 2.395l2.978 3.217c6.695 7.231 9.708 15.337 7.515 23.942l-.021.078-.021.077c-.448 1.536-1.049 3.023-1.891 4.312l-2.494 3.816-3.898-2.366a5 5 0 0 0-.74-.379c-.672 2.408-1.785 4.845-3.225 7.29-1.89 3.207-3.839 5.894-5.89 7.792-2.635 2.44-5.728 4.033-9.238 4.431-3.471.394-6.912-.431-10.202-2.063l-1.516-.753q-.918.228-1.88.337c-3.471.394-6.912-.432-10.201-2.064l-5.173-3.004 6.305-5.837q.03-.024.075-.064c1.775-1.643 2.356-3.001 2.47-4.086-.004-1.796-.374-3.086-.922-4.044-.911-1.32-2.186-2.91-3.862-4.784l-1.947 1.802-6.931-7.486c-.907.143-1.951.641-3.208 1.804l-3.458 3.202-9.267-10.01 3.458-3.201c1.514-1.402 2.961-2.597 4.291-3.433q.18-.123.366-.238l-20.657-22.312-1.586 1.469-7.513-8.114-6.085 5.634-16.142-17.435zm50.747 47.69q-.257.246-.494.48-1.418 1.4-2.081 2.358-1.123 1.27-1.719 4.349-.595 3.08.315 7.291h-.001q-.942.471-2.012.758a12 12 0 0 1-1.815.341q-2.57.304-5.749-.275l-7.301 6.759q.839 6.118-1.558 9.486a27 27 0 0 0-1.521-.408q-3.196-.758-5.725-.468-3.24.472-4.468 1.38-1.467.898-3.694 2.96l2.865 3.094q3.117-2.885 6.472-3.092l.028-.002q.139-.008.277-.011l.071-.002h.266l.067.002q.116.003.232.008l.124.008.201.015.101.009.216.024.105.013q.143.02.286.044.043.007.086.015.132.022.266.051l.053.011.247.057.128.031.157.041q.071.019.142.039.121.036.243.074l.12.038q.144.047.287.098l.048.018.229.086.131.051q.118.047.236.098l.058.024a14 14 0 0 1 .969.468 15 15 0 0 1 .587.331q.523.308 1.05.675l.07.048q.548.385 1.1.832.031.023.062.048a26 26 0 0 1 1.701 1.518l.08.078a28 28 0 0 1 .611.613 46 46 0 0 1 1.317 1.419l.103.113q2.93 3.244 4.611 5.71 1.681 2.808 1.649 6.746-.272 3.927-3.983 7.364-.767.708-1.575 1.019l-.102.039-.122.039q-.083.027-.165.049l-.086.023q-.132.032-.265.054a19 19 0 0 0 2.08.883q.442.157.879.283.962.276 1.892.401.907.122 1.783.101.476-.012.941-.064 2.431-.275 4.624-1.688.399-.257.789-.551a14 14 0 0 0 1.155-.968l.295-.282q.27-.266.543-.56a24 24 0 0 0 1.76-2.153q.28-.381.564-.791l.048-.069a46 46 0 0 0 1.193-1.833l.161-.265q.232-.378.467-.775a32 32 0 0 0 1.704-3.29q.233-.528.432-1.043.201-.52.368-1.027.49-1.496.678-2.87a7 7 0 0 1 .391-.337q.977-.78 2.061-1.043a4.6 4.6 0 0 1 1.145-.134q.231 0 .465.022.352.032.712.113.362.08.732.208a9.3 9.3 0 0 1 1.784.856q.636-.972 1.124-2.453l.069-.21q.06-.19.118-.389 2.097-8.227-3.687-16.266-.134-.189-.272-.377a33 33 0 0 0-1.9-2.331l-.547-.603-2.978-3.216a31 31 0 0 1-2.132-2.551 21 21 0 0 1-1.584-2.455 18 18 0 0 1-.345-.676q-3.303-6.805 2.357-12.045l-2.864-3.094q-.279.257-.536.503m42.234-39.109q-2.226 2.062-3.234 3.455-1.124 1.27-1.719 4.349-.596 3.08.316 7.291-1.027.464-2.181.74-.483.116-.988.2-2.852.469-6.409-.116.189 1.387.211 2.634.035 1.809-.28 3.319-.426 2.037-1.489 3.533a25 25 0 0 0-1.495-.451q-3.104-.829-5.627-.54a16.5 16.5 0 0 0-2.12.37q-1.512.378-2.347 1.01-1.467.898-3.818 3.074l2.864 3.094a17 17 0 0 1 .532-.471l.05-.042-.003.003q2.895-2.44 5.97-2.653l.024-.001q.456-.03.917-.011l.158.008q.065.004.128.009l.17.013q.618.058 1.244.203l.129.031q.087.022.173.045l.139.038q.468.13.94.311l.121.047.222.09.071.03a13 13 0 0 1 1.433.716l.145.085q.508.298 1.021.652l.087.059q.262.183.526.38l.113.086q.224.17.447.349l.085.068q.24.194.481.4l.178.154a31 31 0 0 1 .627.566q.168.156.336.319l.2.192q.211.207.424.423l.23.237q.235.243.472.497l.716.792q10.811 12.204 2.422 19.972-1.114 1.03-2.439 1.338.598.283 1.181.519 7.418 3.008 12.465-1.664l.648-.627.047-.048a18.8 18.8 0 0 0 3.253-4.477q.242-.462.459-.938 1.08-2.374 1.577-5.149.06-.328.111-.664.074-.485.13-.983l.743-.687q.396-.015.788-.042.347-.022.689-.054a23 23 0 0 0 2.823-.443q.683-.151 1.344-.345a20 20 0 0 0 2.96-1.134q.405-.195.8-.408a19.6 19.6 0 0 0 4.046-2.903l.324-.31.086-.091q4.061-4.134 2.415-10.632a21 21 0 0 0-.758-2.371l-1.521 2.328q-1.602 1.482-3.179 2.361-1.227.684-2.439 1.002a7.4 7.4 0 0 1-1.563.161l-.115-.003-.271-.008q-.094-.005-.192-.014-.107-.007-.215-.016l-.172-.021q-.123-.014-.246-.033l-.138-.022q-.147-.025-.295-.053l-.115-.024a10 10 0 0 1-.288-.065q-.089-.022-.179-.046-.113-.03-.227-.062a9 9 0 0 1-.458-.141l-.17-.059a10 10 0 0 1-.272-.098l-.145-.056-.282-.113-.224-.097q-.115-.05-.231-.103l-.173-.082a15 15 0 0 1-1.158-.607l-.218-.127q-.153-.09-.307-.185l-.173-.108q-.148-.093-.296-.19l-.151-.098a32 32 0 0 1-.494-.339l-.269-.191-.178-.131q-.204-.15-.409-.306l-.091-.07-.256-.2-.247-.195-.215-.176q-.384-.315-.774-.653-.137-.12-.276-.242l-.227-.203-.424-.388-.069-.064a38 38 0 0 1-.546-.518q-.221-.214-.444-.435l-.183-.182a50 50 0 0 1-.926-.948l-.541-.577a34 34 0 0 1-1.134-1.288 26 26 0 0 1-1.439-1.891 19 19 0 0 1-1.127-1.841 14.6 14.6 0 0 1-.83-1.838 11.5 11.5 0 0 1-.519-1.87q-.369-2.02.132-3.899a9 9 0 0 1 .564-1.531q.249-.528.571-1.045l.084-.132a12 12 0 0 1 1.244-1.612l.074-.083q.429-.467.923-.925zm-18.576 44.436-3.459 3.202c-1.815 1.681-2.156 3.013-2.043 4.188.08.83.42 1.912 1.216 3.254l11.971-2.774a.3.3 0 0 0 .068-.028c.04-.022.119-.073.232-.178 1.908-1.766 2.346-3.332 2.088-5.038-.284-1.879-1.518-4.487-4.415-7.864l-2.057 1.904-6.973-7.53c-.899.182-1.934.707-3.166 1.848l-.974.902zm-105.348-17.945 9.738 10.517 7.672-7.103 32.878 35.513q2.183-.563 5.024-.416.296.014.599.036l.094-.271a7 7 0 0 0 .125-.441q.375-1.48.261-3.583a21 21 0 0 0-.136-1.539l10.27-9.508q.949.155 1.781.246.416.047.802.077 1.933.149 3.136-.103-.38-5.623 4.121-10.939l-2.785-39.245 3.465-3.208 21.881 23.633a17 17 0 0 1 .963-.242l.078-.017q.484-.1.969-.164l.037-.006q1.168-.152 2.346-.094.732.035 1.468.153.297-.882.374-2.096.1-1.543-.155-3.623l3.219-2.979a36 36 0 0 0 1.78.247q2.495.275 3.939-.027a14.7 14.7 0 0 1 .215-3.879q.215-1.116.614-2.175l-32.649-35.264 7.424-6.874-9.738-10.517-21.654 20.048 3.109 64.913-4.207 3.896-24.058-25.986 7.425-6.874-9.738-10.517zm53.259-8.283 2.489 2.688-.229-4.781z" fill="#000"/><path fill-rule="evenodd" clip-rule="evenodd" d="m937.08 434.165-4.992-9.567q-3.175-6.089-3.636-11.285l-.011-.148q-.058-.687-.066-1.358l-.001-.12q-.002-.286.005-.569l.003-.12q.01-.297.028-.591l.005-.089q.023-.319.056-.635l.017-.147a17 17 0 0 1 .172-1.15l.032-.172q.12-.607.285-1.199l.051-.18q.062-.214.13-.426.03-.097.062-.195l.022-.071.181-.507a21.6 21.6 0 0 1 1.299-2.92l.061-.113q.217-.399.451-.788l.119-.192q.085-.141.175-.281l.054-.084q.256-.397.53-.783.04-.06.083-.117.124-.172.252-.341l.055-.075a17 17 0 0 1 .342-.439 22 22 0 0 1 .957-1.119l.091-.099q.317-.342.65-.674l.109-.107a24 24 0 0 1 2.098-1.832l.294-.225q.073-.057.147-.113l.28-.204.203-.147a30 30 0 0 1 2.976-1.854l.546-.29a25 25 0 0 1 3.024-1.345q.206-.074.41-.144l.063-.022q.141-.048.282-.094l.203-.065q.162-.05.323-.097.104-.031.208-.061l.144-.039q.174-.048.345-.092l.192-.048q.142-.035.284-.067l.195-.043.276-.059q.185-.036.369-.067l.056-.011a16 16 0 0 1 .565-.088l.188-.025.257-.031.198-.021q.133-.013.266-.024l.225-.015.253-.017.193-.009.235-.007a14 14 0 0 1 1.147.017q.149.007.298.018l.162.013q.149.012.297.028l.15.017q.14.017.281.036a14 14 0 0 1 1.378.257l.153.036q.198.05.397.105l.035.009a15.4 15.4 0 0 1 3.641 1.567q.12.069.238.141.038.023.077.048.372.227.74.479l.159.11.275.196.093.067q.145.107.29.217l.229.178.14.109.27.22.158.131a21 21 0 0 1 .46.397l.052.047q.167.15.333.304l.117.11a19 19 0 0 1 .387.372q.133.129.265.262.075.076.148.153.119.12.236.245l.173.185.166.18.133.145.17.192.036.039q.152.172.303.349l.116.137q.108.126.214.255l.245.3.125.155.214.271.182.234.105.137q.323.425.642.87.058.08.114.162.308.435.613.889.212.32.422.648.15.23.299.464.315.503.624 1.029l.08.13q.358.608.71 1.244.355.639.703 1.306l4.914 9.42zm20.566-16.046c-3.118-5.368-6.243-8.347-9.147-9.678-3.001-1.376-6.526-1.338-11.09 1.043-1.643.857-3.07 1.804-4.301 2.836.142 2.816 1.096 6.144 3.159 10.097l2.811 5.389z" fill="#000"/><path fill-rule="evenodd" clip-rule="evenodd" d="m1009.15 441.444-.04.018-5.93 12.448-21.065 10.99-6.239-11.96-26.607 13.723.986 1.891-.039.02-5.073 12.001-12.948 6.755-2.18-4.179c-1.145-2.193-2.341-2.873-3.503-3.073-1.464-.252-3.916.088-7.689 2.056q-.484.255-.938.502l6.299 6.88-.022.001-5.944 12.466-9.351.941c-3.561.359-6.979.04-10.005-1.308-3.106-1.384-5.462-3.703-7.036-6.719-2.309-4.426-3.092-9.181-2.461-14.118-4.386-2.283-7.821-5.591-10.096-9.952-1.574-3.016-2.129-6.274-1.538-9.619.576-3.264 2.188-6.31 4.444-9.125l1.359.629a14.7 14.7 0 0 1 .163-3.971c.485-2.743 1.701-5.331 3.416-7.759-5.122 2.042-10.102 2.806-14.765 1.758-6.143-1.38-10.682-5.654-13.827-11.681-2.831-5.427-4.555-10.832-3.525-15.555l-.001-.001c.653-3.33 1.991-6.6 4.702-8.731l.967-.761a13.6 13.6 0 0 1 .299-2.974h-.002c.654-3.33 1.991-6.6 4.702-8.732l8.797-6.914-1.174 10.904q.015.037.041.09c1.614 3.093 2.987 3.408 4.001 3.361 2.476-.114 6.04-1.172 10.863-3.688 4.215-2.199 8.504-3.37 12.736-3.012 1.906.161 3.705.627 5.393 1.363a33 33 0 0 1 2.124-3.011c2.211-10.39 9.874-18.667 21.776-24.876 5.302-2.766 10.576-4.357 15.77-4.536 4.616-.289 8.884.174 12.646 1.604l.747.299c3.924 1.489 7.786 4.293 11.594 8.02v-.002c4.031 3.895 7.584 8.911 10.719 14.918zm-88.73-19.889q-1.403-2.691-2.483-4.03-.929-1.418-3.743-2.802-2.816-1.384-7.118-1.612-.754-4.361 1.801-9.308-2.198-2.165-4.711-3.188-5.998-2.445-13.796 1.621l-.943.483q-7.006 3.51-11.881 3.735l-.323.009q-4.976.04-8.075-5.898-.702-1.346-.571-2.555-1.531 1.205-2.393 3.689-.218.626-.393 1.333-.111.44-.204.914-.395 1.703-.06 3.883.558 3.631 3.141 8.582 4.784 9.171 13.144 9.594.38.02.769.022 4.95.013 11.106-2.924.17-.08.341-.161l1.139-.575 3.887-2.027a29 29 0 0 1 3.741-1.651q.356-.125.704-.235c1.485-.466 2.87-.712 4.156-.746q5.6-.149 8.683 5.171l.027.045q.163.283.318.58l4.056 7.774a17 17 0 0 1 .549 1.169q.046.114.089.228.073.18.139.358.044.13.086.26.051.144.098.288.043.146.082.292.043.147.08.293.033.137.061.272.03.13.057.259.029.149.051.298.024.14.044.28l.027.235q.017.15.03.3.008.123.012.246.009.156.012.311 0 .13-.003.257 0 .12-.005.239-.009.158-.022.316l-.021.228a9 9 0 0 1-.129.801q-.025.12-.053.24-.037.15-.08.299l-.056.192a11 11 0 0 1-.285.788 10 10 0 0 1-.226.5q-.057.117-.118.232a10 10 0 0 1-.27.481q-.08.132-.163.266a12 12 0 0 1-.463.667q-.104.141-.214.279-.1.126-.204.248-.089.108-.181.215-.108.122-.221.243-.103.114-.21.227-.096.1-.194.198-.142.142-.289.284l-.177.165q-.14.129-.283.258l-.219.19a19 19 0 0 1-.33.277q-.094.076-.189.151-.176.14-.358.281-.122.092-.248.184-.161.12-.327.239-.152.108-.307.214-.142.099-.287.197-.155.102-.313.203-.19.124-.385.246-1.004.626-2.154 1.228l-.797.407q-5.933 2.983-10.448 3.556-2.86.351-5.298-1.039a11.3 11.3 0 0 1-3.692-4.161q-1.326-2.54-1.117-3.601-5.338 6.664-2.845 12.675l.003.003q.194.472.437.939 3.276 6.28 10.639 9.094l.468.898c-.124.498-.226.993-.317 1.484-.083.45-.157.897-.212 1.342a20.3 20.3 0 0 0-.061 4.52 19 19 0 0 0 .376 2.255 18.5 18.5 0 0 0 .911 2.857 20 20 0 0 0 .753 1.62q2.683 5.142 9.001 5.588a18 18 0 0 0 1.068.043q1.109.01 2.32-.112l-1.768-1.93q-.284-.546-.518-1.079a13.6 13.6 0 0 1-.747-2.166q-.647-2.606.069-4.881.046-.131.095-.261.112-.307.233-.601.052-.125.107-.247l.08-.187q.037-.079.075-.158.056-.123.116-.245l.088-.175.112-.217.114-.207a10 10 0 0 1 .193-.332 13 13 0 0 1 .229-.369l.14-.212.076-.109q.098-.14.198-.274l.053-.071q.351-.463.741-.873l.029-.032.053-.055q.403-.415.847-.774l.321-.248q.32-.256.667-.517.1-.074.202-.148.269-.2.554-.402l.146-.102q.313-.216.643-.436l.198-.131q.294-.192.601-.386l.318-.201q.318-.197.652-.395l.248-.149q.37-.219.757-.439l.205-.118q.484-.274.994-.552l1.127-.6q2.355-1.229 4.444-1.891a19 19 0 0 1 1.801-.472q.458-.097.903-.162.403-.057.793-.089a11.3 11.3 0 0 1 1.81-.016c3.365.252 5.966 2.13 7.8 5.645l3.737-1.95q-1.326-2.54-2.327-3.73-.929-1.417-3.743-2.802-2.816-1.384-7.04-1.462a12.2 12.2 0 0 1-.176-2.369q.058-3.38 1.821-7.239-4.858-.635-7.558-2.876a9 9 0 0 1-1.263-1.27q2.353-3.51 2.828-6.612.474-3.1-.078-4.523-.12-.412-.299-.891a21 21 0 0 0-.413-1.02 31 31 0 0 0-.529-1.151q-.293-.607-.644-1.281zm-13.882 16.596c-1.183-2.267-2.418-2.98-3.597-3.191-1.465-.263-3.911.062-7.673 2.025l-3.887 2.028q-1.107.576-2.208 1.082l7.271 3.375c.087-.443.059-.758.046-.859-.013-.111-.028-.124.006-.016.032.103.092.271.198.514q.155.359.422.874a6.6 6.6 0 0 0 2.009 2.33c.67.346 1.368.478 2.228.372 2.152-.276 4.87-1.128 8.206-2.743zm70.42-48.196q-4.223-7.794-9.255-12.657-5.448-5.337-10.154-7.066-4.635-1.957-11.265-1.541-6.558.188-13.884 4.01l-1.276.684q-9.7 5.337-14.349 12.289-2.674 3.998-3.677 8.529a24 24 0 0 0-.478 3.013 27.6 27.6 0 0 0-.09 4.11q.23.26.541.764.31.503.7 1.251-.19.408-.359.803-.729 1.704-1.042 3.138a10 10 0 0 0-.237 1.668q4.694.976 7.313 4.173.449.508.911 1.099.428.545.869 1.161 2.012 2.823 4.264 7.14a449 449 0 0 1 1.61 3.115l.138.269.002.005q1.83 3.582 2.547 5.212 1.203 2.786 1.377 5.415l.001.002q.005.078.008.155.017.313.021.627l-.001.197-.002.194-.008.236-.007.142-.012.207-.015.204a12.5 12.5 0 0 1-.305 1.904q-.026.109-.053.218a12 12 0 0 1-.203.704q-.035.114-.074.227-.028.084-.058.166l-.081.225-.039.103q-.188.497-.419.987.345.25.757.473.27.145.57.28a11 11 0 0 0 .973.376q.347.118.722.222 1.126.313 2.515.515l2.028 3.887q-.8 1.748-1.228 3.113c-.252.8-.403 1.501-.463 2.104q-.016.124-.025.242 2.213.415 4.097 1.43a14 14 0 0 1 1.22.743l42.759-22.308 6.239 11.96 12.709-6.629-25.273-48.439z" fill="#000"/><path fill-rule="evenodd" clip-rule="evenodd" d="m857.398 248.823-.015.018-.303 13.8-9.515 12.096 33.827-7.041 28.624 22.514-.033.042.106 13.279-15.081 19.173-7.952-6.255-18.507 23.529 1.566 1.232-.028.035-.289 13.783-8.433 10.722-3.706-2.914c-2.074-1.632-3.54-1.789-4.722-1.502-1.451.352-3.547 1.639-6.163 4.965q-.364.464-.7.91l8.73 3.914-.033.019-.285 13.8-7.982 4.61c-3.099 1.791-6.346 2.903-9.659 2.918-3.4.015-6.501-1.131-9.174-3.234-4.01-3.154-6.76-7.244-8.285-12.102-5.049-.326-9.633-1.992-13.585-5.1-2.697-2.121-4.579-4.873-5.397-8.197-.798-3.248-.494-6.686.52-10.136l.475-1.617a14.6 14.6 0 0 1-.677-2.066c-.798-3.247-.494-6.685.52-10.135l3.186-10.835a25 25 0 0 0-2.055 2.327l-2.711 3.446c-6.092 7.745-13.626 11.992-22.468 11.174l-.08-.008-.079-.009c-1.588-.201-3.151-.561-4.556-1.191l-4.159-1.865 1.725-4.221c.135-.329.213-.59.258-.79-2.483-.287-5.065-1.003-7.704-2.043-3.465-1.363-6.423-2.868-8.62-4.595-2.822-2.22-4.881-5.026-5.824-8.429-.933-3.367-.658-6.895.439-10.4l.505-1.615a15 15 0 0 1-.627-1.804c-.933-3.367-.657-6.894.44-10.399l2.156-5.58 6.753 5.312q.03.027.074.065c1.901 1.495 3.334 1.856 4.423 1.798 1.774-.285 2.989-.853 3.85-1.544 1.16-1.107 2.531-2.615 4.119-4.564l-2.084-1.64 6.307-8.019c-.284-.874-.939-1.827-2.285-2.886l-3.704-2.913 8.433-10.722 3.704 2.914c1.621 1.275 3.029 2.517 4.062 3.7q.151.158.293.324l18.798-23.899-1.699-1.337 6.836-8.691-6.518-5.127 14.689-18.676zm-39.146 57.595a53 53 0 0 0-.551-.413q-1.605-1.18-2.656-1.686-1.43-.91-4.565-1.016-3.134-.106-7.151 1.455v-.002a10.7 10.7 0 0 1-1.064-1.868 12 12 0 0 1-.622-1.739q-.702-2.49-.629-5.722l-7.82-6.151q-5.911 1.788-9.613-.051.107-.806.165-1.567.247-3.274-.436-5.727-.974-3.126-2.062-4.197-1.118-1.307-3.503-3.184l-2.607 3.315q3.339 2.627 4.068 5.907l.007.028q.03.135.055.271l.012.07q.022.13.042.263l.009.066.04.355.016.2.007.101q.007.108.01.217l.004.106a9 9 0 0 1-.008.647l-.004.055q-.006.125-.017.252l-.01.132-.017.161-.015.147-.036.252-.018.124q-.024.149-.052.298l-.01.051-.049.24-.03.137-.06.248-.015.062q-.058.224-.126.452-.067.23-.145.46l-.039.117q-.092.267-.196.535l-.039.097a17 17 0 0 1-.538 1.22 21 21 0 0 1-.649 1.217l-.038.068a26 26 0 0 1-1.233 1.918l-.065.092q-.217.309-.45.621-.03.038-.059.078-.24.32-.494.644-.354.452-.701.879l-.095.12q-2.746 3.401-4.917 5.448-2.511 2.101-6.404 2.686-3.921.348-7.898-2.779-.82-.646-1.253-1.396-.028-.047-.054-.095-.03-.056-.058-.114a4 4 0 0 1-.11-.236 4 4 0 0 1-.096-.253 20 20 0 0 0-.424 1.583 18 18 0 0 0-.263 1.521 13.4 13.4 0 0 0-.1 1.932q.023.915.181 1.777.085.467.21.92.652 2.358 2.392 4.302a13.5 13.5 0 0 0 1.408 1.359q.193.163.397.322l.325.247q.303.224.638.449 1.049.703 2.402 1.401.42.216.87.433l.075.036q.936.447 1.998.891.141.059.287.118.41.17.838.34 1.842.724 3.516 1.167.558.147 1.098.263.546.118 1.072.202 1.554.251 2.941.22.207.163.394.333.924.844 1.354 1.873.091.218.161.446a5 5 0 0 1 .202 1.126 6 6 0 0 1 0 .721 7 7 0 0 1-.092.756 9.3 9.3 0 0 1-.565 1.896q1.06.475 2.598.725l.219.035q.198.03.403.057 8.453.78 15.486-6.192.166-.161.33-.328.451-.46.895-.952.56-.619 1.11-1.289l.509-.636 2.71-3.445a31 31 0 0 1 2.185-2.505 21 21 0 0 1 2.177-1.949q.307-.235.614-.447 6.202-4.329 12.265.44l2.606-3.314a54 54 0 0 0-.58-.45M863.497 342q-2.386-1.876-3.919-2.653-1.43-.91-4.564-1.016t-7.152 1.455a12 12 0 0 1-1.072-2.038 14 14 0 0 1-.353-.945q-.91-2.743-.89-6.348-1.341.404-2.568.621-1.78.32-3.322.244-2.079-.1-3.723-.917.133-.794.211-1.547.332-3.196-.349-5.642a16 16 0 0 0-.697-2.035q-.61-1.434-1.366-2.161-1.117-1.307-3.634-3.288l-2.607 3.313q.256.202.495.407l.054.045.049.042-.003-.001q2.864 2.476 3.555 5.48l.006.023a9 9 0 0 1 .182 1.19q.008.084.013.169.041.62-.005 1.261l-.01.132-.017.178-.016.143a11 11 0 0 1-.242 1.337l-.018.075a13 13 0 0 1-.483 1.527l-.061.157q-.215.549-.483 1.111-.023.047-.045.095-.14.288-.293.579l-.068.125q-.132.247-.274.496-.026.048-.054.095a22 22 0 0 1-.767 1.24l-.137.205q-.129.192-.263.383l-.158.227a33 33 0 0 1-.55.749q-.203.271-.417.544l-.669.831q-10.359 12.592-19.346 5.523-1.193-.939-1.703-2.198-.187.634-.328 1.247-1.808 7.798 3.597 12.051l.721.541.054.038a18.8 18.8 0 0 0 4.933 2.512q.492.166.997.307 2.515.694 5.333.75.334.006.673.005.491-.003.992-.025l.795.625a26 26 0 0 0 .326 1.445 23 23 0 0 0 .88 2.718 20.4 20.4 0 0 0 1.407 2.881 19 19 0 0 0 1.257 1.864 19.7 19.7 0 0 0 3.501 3.541l.357.271q.052.036.103.071 4.72 3.363 10.88.719a21 21 0 0 0 2.223-1.121l-2.538-1.137q-1.716-1.35-2.831-2.769a10.5 10.5 0 0 1-1.372-2.253 7.4 7.4 0 0 1-.403-1.518l-.015-.114q-.019-.133-.035-.268-.01-.096-.016-.192-.01-.108-.018-.215l-.006-.174-.007-.248.001-.139q0-.15.006-.3l.005-.118q.008-.145.02-.294l.017-.184q.012-.116.026-.234a8 8 0 0 1 .067-.474l.032-.178q.025-.141.054-.284l.033-.152q.031-.147.067-.296l.06-.236.066-.245.054-.183a11 11 0 0 1 .147-.475 14 14 0 0 1 .179-.516q.044-.123.092-.248.044-.117.091-.235.065-.165.135-.332a15 15 0 0 1 .221-.51l.073-.165.138-.294.119-.247.147-.296.101-.196q.116-.224.239-.452l.054-.101q.077-.141.158-.284a19 19 0 0 1 .294-.514q.25-.429.523-.867l.196-.31a37 37 0 0 1 .482-.736l.052-.078q.16-.238.327-.478l.099-.143q.176-.252.36-.507l.151-.209q.38-.525.791-1.063l.486-.625q.273-.348.547-.678.273-.33.546-.643a26 26 0 0 1 1.642-1.718q.822-.78 1.642-1.402a15 15 0 0 1 1.685-1.108 11.7 11.7 0 0 1 1.766-.805q1.936-.68 3.872-.481.245.025.489.065a9 9 0 0 1 1.11.252 10 10 0 0 1 1.266.462 12.4 12.4 0 0 1 1.787.976l.093.061q.53.35 1.059.765zm-46.798-11.381-3.705-2.915c-1.944-1.529-3.314-1.657-4.456-1.362-.807.209-1.822.715-3.023 1.711l4.616 11.389c.004.011.013.03.039.063.027.035.09.105.211.201 2.044 1.607 3.659 1.795 5.304 1.273 1.811-.575 4.193-2.203 7.074-5.594l-2.203-1.733 6.344-8.067c-.321-.859-1.001-1.799-2.321-2.837l-1.043-.821zm1.21-106.859-8.861 11.266 8.218 6.463-29.921 38.038q.9 2.069 1.2 4.897.032.295.058.598l.282.05q.22.034.455.055 1.52.137 3.58-.304.326-.069.665-.153.408-.101.833-.223l11.001 8.653q-.004.962.035 1.797.02.418.051.805.156 1.932.593 3.081 5.494-1.257 11.449 2.354l38.324-8.901 3.711 2.919-19.911 25.315q.097.207.187.416l.06.14q.074.179.143.357l.029.075q.175.461.314.93l.012.037q.333 1.129.46 2.301.08.729.08 1.474.917.155 2.128.042 1.54-.144 3.554-.721l3.447 2.711a35 35 0 0 0 .035 1.797q.12 2.508.644 3.886a14.7 14.7 0 0 1 3.865-.396q1.136.038 2.244.266l29.711-37.773 7.952 6.255 8.861-11.266-23.194-18.244-63.624 13.246-4.507-3.545 21.893-27.834 7.953 6.256 8.861-11.266zm16.529 51.302-2.265 2.879 4.686-.975z" fill="#000"/><path fill-rule="evenodd" clip-rule="evenodd" d="m432.347 164.549 7.076 22.699-9.66 3.011 9.384 30.103 1.287-.401 11.061 7.151 3.663 11.751q-6.279 1.957-7.508 4.813-1.068 2.807.488 7.797l.753 2.415q1.126-.352 1.53-1.891l5.411 1.494 11.06 7.149q1.393 7.867-1.911 13.136-3.303 5.269-9.742 7.277-6.279 1.956-13.75-.483-4.763 6.253-11.364 8.311-6.439 2.006-17.219-3.111-4.992-2.37-8.514-5.614a24 24 0 0 1-.59 3.153q-1.685 7.06-7.01 12.075-10.206 9.188-24.212 13.554-13.844 4.316-26.73 3.21-12.674-.995-23.373-7.551-10.698-6.556-14.161-17.664l-2.709-8.693 17.708-5.52q3.608 3.643 5.519 4.107 1.765-5.672 8.698-8.363 2.364-.913 7.677-2.569l11.06 7.15 2.61 8.371q3.25-2.603 4.128-6.585l-7.109-4.673-3.463-11.108q2.366-.914 5.546-2.612l-12.445-39.924-1.289.401-11.06-7.15-7.075-22.699 95.174-29.668zm-40.544 75.165q-6.923 2.158-8.988 6.864a31 31 0 0 0-1.311 4.293q-4.165.24-8.91-2.52-1.019 2.967-5.096 6.886a29.9 29.9 0 0 1-8.967 5.798l1.054 3.381 5.796-1.806 1.456 4.669q2.508 8.048-1.339 13.839-3.736 5.58-9.37 7.337-5.635 1.757-10.251.546-4.506-1.421-6.061-6.411-.803-2.577.355-4.527 1.269-2.162 3.522-2.864l-1.205-3.864q-2.897.903-4.406 1.727-1.56.663-3.584 3.236-1.912 2.363-2.791 6.346-4.537.177-9.03-4.603l-11.107 3.462 1.204 3.863q2.71 8.694 10.1 12.572 7.553 3.828 16.254 3.411 8.701-.415 18.843-3.577 15.615-4.868 24.323-13.763 8.819-9.108 4.855-21.827l-.702-2.253q-4.065-13.04 6.56-16.352zm45.811-14.634q-3.058.954-4.567 1.778-1.56.663-3.423 3.185t-2.691 6.667q-4.115.4-9-3.375-2.027 5.4-5.489 7.892-3.197-2.89-6.164-3.907-2.966-1.018-4.625-.677-1.71.18-4.609 1.083l1.255 4.025q10.625-3.312 14.84 10.21 3.813 12.235-.384 16.899-2.013 2.041-5.717 3.195l-2.775.159q5.729 7.045 12.651 4.888 7.082-2.208 11.322-9.005l.967-.302q7.35 3.184 14.273 1.027 7.083-2.208 7.794-11.261-.926.995-2.374 1.446-11.27 3.513-16.439-13.068-4.215-13.522 6.41-16.834zm-29.139 28.346q-5.424 1.851-6.526 4.673-1.068 2.806.387 7.474l.715 2.295q.932.194 2.264-.221 6.918-2.157 3.16-14.221m-76.45-63.258 4.265 13.684 9.66-3.011 16.359 52.482q5.365-4.322 8.034-9.923l2.737-.853q3.156 2.195 5.068 2.659l.948-2.062a37 37 0 0 1 1.591-2.261l-14.453-46.365 25.95-8.089 14.353 46.042q2.604.425 5.289 2.237 1.308-1.468 2.659-5.067l4.185-1.305q2.996 2.245 5.068 2.659.908-2.756 3.083-4.847l-14.352-46.042 9.98-3.111-4.265-13.684zm60.887 44.606.001.005q5.75-1.751 8.392-2.091l-9.535-30.586-8.241 2.569z" fill="#000"/><path fill-rule="evenodd" clip-rule="evenodd" d="M544.862 156.798v33.482h7.251q23.44 0 36.424 11.803 5.017 4.564 8.095 10.286 2.82-.261 8.9-.261l8.431 10.117v12.31q-6.745 0-8.6 2.698t-1.854 9.274q0 28.33-45.53 28.33-12.309 0-18.042-1.519t-10.624-5.057q-6.24 6.575-13.827 6.576-9.949-.001-17.537-8.432-7.42-8.431-8.769-17.706l4.552-3.035q1.012 1.35 3.711 1.35t4.384-2.025q1.687-2.192 2.023-4.384.338-2.36.338-6.07h-2.023l-8.433-10.118v-12.309q7.42 0 10.456.505l.541.199v-32.237h-1.348l-8.431-10.118V146.68h41.481zm56.286 59.694q-3.035 0-4.721.336-1.518.17-4.048 2.025-2.53 1.686-4.722 5.226-3.878-.843-7.42-5.732-3.372 4.383-7.924 5.732-2.193-3.54-4.722-5.226-2.36-1.855-4.046-2.025-1.518-.336-4.722-.336v4.047q5.564 0 7.925 3.204t2.36 6.408q0 17.367-19.728 17.367-19.56 0-19.561-17.367 0-3.036 2.361-6.24 2.53-3.372 8.094-3.372v-4.047q-3.035 0-4.721.336-1.687.17-4.217 2.025-2.53 1.686-4.721 5.226-4.047-.843-7.588-5.732-3.373 4.384-7.419 5.732-2.193-3.54-4.722-5.226a22 22 0 0 0-.7-.49h-1.457v-.86c-.768-.386-1.453-.614-2.058-.675q-1.687-.336-4.722-.336v4.047q10.792 0 10.792 13.996 0 5.395-.675 8.599-.506 3.204-3.203 5.903-2.53 2.698-7.589 2.698l-2.867-.337q4.047 8.768 12.31 8.768 3.879 0 6.745-1.855 3.036-1.854 6.745-5.902h1.349q4.553 4.047 10.117 5.734 5.735 1.685 17.876 1.685 40.806 0 40.806-23.607 0-15.682 10.793-15.682zm-48.059 18.043q-9.948.338-9.949 6.576v.844q2.698.673 6.409.673 12.309 0 14.5-8.093h-1.179l-8.432-10.118-1.349-2.192zm-53.419-68.8h10.118v49.04q1.465.912 3.168 2.897 1.35-.843 3.879-4.047h4.384q2.192 3.036 3.878 4.047 2.361-2.867 5.228-4.047l1.047-.02v-7.642h10.623q14.808 0 20.522 7.059l3.893-.071q4.553 1.011 7.589 4.721 1.686-1.349 3.877-4.047h4.555q1.854 3.036 3.878 4.047.48-.684 1.098-1.312l-.05-.229q-4.323-20.96-36.423-20.961h-19.562v-43.768H499.67z" fill="#000"/><path d="m752.31 231.182-8.398 23.142 2.06.748 4.475 12.387-4.199 11.571q-6.34-2.3-9.005-.397-2.663 1.903-4.907 8.085-9.663 26.63-52.462 11.1-11.571-4.2-16.443-7.581-4.871-3.382-8.26-8.38-8.109 4.054-15.241 1.466-9.353-3.394-13.61-13.908-4.098-10.456-2.203-19.635l5.315-1.3q.492 1.613 3.028 2.534t4.811-.407q2.333-1.485 3.398-3.431 1.122-2.105 2.388-5.591l-1.903-.691-4.474-12.386 4.199-11.572q6.975 2.532 9.655 4.042l10.929-30.117-1.268-.46-4.474-12.387 8.11-22.35 54.528 19.787q19.022 6.902 29.706 20.466 5.364 6.97 6.508 16.174 1.36 9.104-2.263 19.091m-37.878 18.365q2.045-.693 5.027-2.482l4.279 1.554q.71 3.485 2.266 5.127 2.333-1.486 4.796-1.848l12.539-34.555q4.602-12.681-3.415-22.227-7.959-9.705-23.176-15.227l-50.089-18.176-4.89 13.473 9.511 3.451-16.623 45.81q1.298 1.368 2.394 4.278 1.556-.333 5.026-2.482l4.122 1.496q1.024 3.6 2.265 5.127 3.413-1.99 6.827-2.007L691.57 186l17.436 6.327q7.926 2.876 11.185 8.723t.442 13.614l-10.412 28.691q2.87 2.475 4.211 6.192m-8.853 10.062q-5.925 16.326-24.47 9.596-18.388-6.672-12.463-22.999 1.035-2.853 4.347-5.059 3.528-2.308 8.759-.41l1.381-3.804q-2.853-1.035-4.554-1.293-1.642-.417-4.653.464-2.952.721-6.221 3.303-3.517-2.173-5.178-7.978-4.665 2.971-8.93 2.859-.852-4.077-2.655-6.525-1.745-2.606-3.272-3.34-1.471-.892-4.324-1.927l-1.38 3.804q10.144 3.681 5.37 16.838-1.84 5.071-3.567 7.854-1.569 2.838-5.025 4.455-3.298 1.673-8.054-.052l-2.579-1.295q.813 9.622 8.58 12.441 3.646 1.323 6.973.557 3.486-.708 8.354-3.247l1.268.46q2.9 5.358 7.555 8.841 4.815 3.541 16.227 7.682 38.36 13.92 46.413-8.271 5.35-14.742 15.494-11.061l1.38-3.804q-2.853-1.035-4.553-1.294-1.484-.358-4.494.522-2.954.723-6.222 3.303-3.359-2.115-5.019-7.92-4.666 2.971-9.405 2.686-.853-4.077-2.656-6.524-1.586-2.55-3.114-3.283-1.311-.834-4.323-1.928l-1.38 3.805q5.23 1.897 6.357 5.715t.033 6.829m-7.636-21.965q5.865 2.127 8.128 3.308l9.893-27.264.589-2.119q-1.671-1.323-4.683-2.417l-12.998-4.716-10.757 29.641.635.23 4.474 12.387-4.199 11.571q-9.468-3.076-11.596 2.789l-.287.792q2.305 1.555 5.793 2.82 11.572 4.199 16.393-2.662l-1.109-.402-4.475-12.387z" fill="#000"/></svg>
