<svg width="128" height="128" viewBox="0 0 128 128" fill="none" xmlns="http://www.w3.org/2000/svg"><path d="M78.442 69.57c.876-.83 1.99-1.993 3.104-3.57l3.66-.084c1.193 1.744 2.228 2.824 3.262 3.405 1.592-2.159 3.501-3.57 5.73-4.152 2.148-.582 5.57-.914 10.105-1.08l7.161 8.555.239 10.63c-3.501.084-5.809.831-6.923 2.243-1.114 1.412-1.591 3.488-1.511 6.312l.079 2.326c.637-.084 1.194-.499 1.671-1.08l3.82 2.491 7.161 8.555c-.557 4.568-2.069 8.056-4.615 10.465-2.546 2.408-5.888 3.654-9.947 3.737-4.058.083-7.877-1.661-11.458-5.398-2.228 1.827-3.899 3.073-5.172 3.903-1.273.831-3.501 1.661-6.684 2.575-3.262.913-7.957 1.412-14.164 1.578-6.206.166-12.572-.748-19.097-2.824-6.525-1.993-12.095-5.731-16.63-11.046-4.536-5.316-7.003-12.043-7.162-20.1v-1.577l-1.67.083-7.162-8.555L12 66.332c4.058-.083 7.002 0 8.673.249l-.716-32.308c-.239-11.379 5.252-19.186 16.471-23.588 5.73-2.242 12.016-3.488 18.859-3.654 6.843-.166 12.89.332 18.063 1.495a49.512 49.512 0 0 1 14.323 5.648c4.376 2.574 7.877 6.146 10.503 10.714 2.626 4.568 3.979 9.966 4.138 16.03l.318 14.7-27.054.664-7.162-8.554-.239-10.465-.159-2.326c-.875-.249-2.069-.415-3.66-.332-6.843.166-10.265 4.07-10.026 11.794l.477 19.517 6.764 7.973.239 10.631c-1.592.166-2.865.333-3.82.499-.954.166-1.989.664-2.944 1.578-1.034.913-1.512 2.159-1.432 3.82l.16 2.16c1.51.58 3.58.747 6.206.747 2.626 0 5.013-.914 7.082-2.492 2.068-1.578 3.342-3.737 3.819-6.478h-.955L62.767 75.8l-.24-10.631c3.184-.083 5.491-.083 7.003 0 3.66.166 6.764 1.66 8.912 4.402ZM70.565 92.91c-2.944 2.99-6.843 4.568-11.777 4.65-4.933.167-8.912-1.245-11.856-4.069-2.944-2.824-4.536-6.893-4.695-12.292-.08-1.827.557-3.737 1.83-5.564 1.273-1.91 3.422-2.824 6.525-2.907l-.08-3.489c-1.75.083-3.103.166-3.978.333-.875.166-1.99.747-3.342 1.827-1.353 1.08-2.546 2.574-3.74 4.65-2.307-.415-4.535-1.993-6.684-4.816-1.591 2.574-3.66 4.235-6.047 5.066-1.273-1.993-2.626-3.488-3.979-4.485-1.432-.997-2.546-1.578-3.421-1.661a25.927 25.927 0 0 0-3.82-.083l.08 3.488c5.968-.166 9.07 4.319 9.23 13.289.16 5.232 1.99 9.551 5.57 12.79 6.366 5.98 15.914 8.804 28.646 8.472 4.456-.084 8.275-.665 11.458-1.662 3.183-.996 5.411-1.993 6.605-2.823 1.273-.914 2.864-2.326 4.853-4.236h1.114c2.07 2.242 3.979 3.903 5.65 4.983 1.671.997 3.58 1.495 5.65 1.495 4.535-.083 7.877-2.741 10.026-7.807-.557.25-1.353.332-2.388.332-2.785.083-4.933-.664-6.365-2.16-1.512-1.494-2.387-3.155-2.785-5.065-.398-1.828-.557-4.32-.637-7.392-.159-8.056 2.706-12.126 8.673-12.292l-.079-3.488c-1.671.083-2.944.166-3.9.332-.954.166-2.068.747-3.42 1.827-1.353 1.08-2.627 2.658-3.82 4.651-2.069-.415-4.138-1.993-6.286-4.817-1.592 2.575-3.66 4.236-6.127 5.15-1.273-1.994-2.626-3.49-3.979-4.486-1.432-.996-2.626-1.495-3.501-1.66a27.474 27.474 0 0 0-3.9-.084l.08 3.488c3.104-.083 5.332.831 6.684 2.658 1.353 1.827 2.149 3.654 2.149 5.399.08 5.315-1.273 9.468-4.217 12.458Zm-42.81-22.093c1.114-.747 2.149-1.91 3.103-3.57l3.74-.084c1.273 1.744 2.308 2.824 3.263 3.405 1.591-2.076 3.5-3.405 5.65-4.07l-.637-28.653c-.08-5.066 1.034-8.97 3.5-11.71 2.468-2.741 5.969-4.236 10.504-4.32 4.536-.082 8.196 1.163 10.822 3.738 2.626 2.575 4.058 6.478 4.217 11.628l.16 6.56 19.097-.497-.239-10.3c-.16-5.314-1.99-9.716-5.57-13.122-3.58-3.405-7.798-5.73-12.652-6.893-4.854-1.163-9.867-1.744-14.96-1.578-5.092.166-9.548.664-13.288 1.495-3.74.913-7.24 2.16-10.503 3.903-3.263 1.745-5.809 4.153-7.719 7.226-1.91 3.073-2.785 6.644-2.705 10.714l.796 33.305c1.352.664 2.466 1.578 3.421 2.823Z" fill="gray"/></svg>
